<ttFont>
          <CharString index="0">
            rmoveto
            34 vlineto
            357 -241 225 -326 -334 -232 -225 -357 vhcurveto
            -34 vlineto
            -357 234 -224 334 326 239 224 357 vhcurveto
            -361 35 rmoveto
            -35 vlineto
            -181 -78 -116 -126 -142 -64 116 181 vhcurveto
            35 vlineto
            187 62 109 142 129 77 -109 -187 vhcurveto
            endchar
          </CharString>
          <CharString index="1">
            rmoveto
            hintmask 11011000
            67 35 40 58 74 vvcurveto
            151 -123 76 -179 -173 -127 -76 -151 -74 41 -58 67 -35 vhcurveto
            hintmask 11100100
            -77 -37 -49 -63 -87 vvcurveto
            -157 137 -74 183 186 132 74 157 vhcurveto
            hintmask 11000100
            87 -48 63 -77 37 vhcurveto
            hintmask 11011000
            -195 206 rmoveto
            49 19 -17 -39 -36 -18 -26 -48 -47 -21 26 36 37 21 19 45 hvcurveto
            hintmask 11100100
            2 -436 rmoveto
            -49 -37 26 43 45 37 17 47 51 36 -17 -45 -43 -34 -26 -51 hvcurveto
            endchar
          </CharString>
          <CharString index="2">
            rmoveto
            -84 -72 -61 -79 -79 72 -61 84 84 73 61 79 79 -73 61 -84 hvcurveto
            -533 -1 rmoveto
            -84 -72 -61 -79 -79 72 -61 84 84 73 61 79 79 -73 61 -84 hvcurveto
            return
          </CharString>
          <CharString index="3">
            rmoveto
            84 73 61 79 79 -73 61 -84 -84 -72 -61 -79 -79 72 -61 84 hvcurveto
            -533 -1 rmoveto
            84 73 61 79 79 -73 61 -84 -84 -72 -61 -79 -79 72 -61 84 hvcurveto
            return
          </CharString>
          <CharString index="4">
            rmoveto
            -180 -140 -133 -158 -188 108 -73 157 47 48 17 29 40 hvcurveto
            -130 -22 -94 5 -115 hhcurveto
            -13 -186 17 hlineto
            226 239 58 374 hvcurveto
            60 vlineto
            251 -159 74 -159 vhcurveto
            -86 -296 rmoveto
            59 33 49 53 60 25 -20 -67 vhcurveto
            -85 vlineto
            -11 -13 -23 -11 -36 hhcurveto
            -65 -34 23 63 hvcurveto
            endchar
          </CharString>
          <CharString index="5">
            262 -197 131 -260 -293 -188 -147 -216 vhcurveto
            358 hlineto
            77 36 28 68 85 31 -51 -82 vhcurveto
            -50 -93 vlineto
            -356 -155 -136 -219 return
          </CharString>
          <CharString index="6">
            8 -35 10 -31 12 -27 rrcurveto
            357 17 hlineto
            -29 53 -17 52 162 vvcurveto
            -509 -43 rmoveto
            -53 -44 31 49 67 31 80 114 hvcurveto
            101 -157 hlineto
            -36 -21 -51 -34 -77 hhcurveto
            endchar
          </CharString>
          <CharString index="7">
            rmoveto
            186 vlineto
            211 -134 104 -186 -186 -132 -104 -211 vhcurveto
            -186 vlineto
            -212 133 -98 187 185 133 98 212 vhcurveto
            -233 189 rmoveto
            -191 vlineto
            -99 -35 -21 -50 -54 -32 21 99 vhcurveto
            191 vlineto
            95 33 29 51 52 35 -29 -95 vhcurveto
            endchar
          </CharString>
          <CharString index="8">
            rmoveto
            -200 7 callgsubr
            -374 hlineto
            285 -319 rlineto
            return
          </CharString>
          <CharString index="9">
            rmoveto
            -21 vlineto
            -317 182 -233 345 344 181 233 317 vhcurveto
            21 vlineto
            317 -181 234 -346 -343 -182 -234 -317 vhcurveto
            return
          </CharString>
          <CharString index="10">
            rmoveto
            331 284 158 414 hvcurveto
            667 -1113 -292 113 vlineto
            -45 -77 -24 -117 -125 vvcurveto
            -1 -88 109 -73 198 -28 142 41 rlinecurve
            233 vlineto
            -16 -2 -38 2 -30 6 rrcurveto
            41 vlineto
            66 6 43 21 78 vhcurveto
            299 -425 hlineto
            -150 -86 -74 -178 -1 vhcurveto
            -90 -147 20 38 -139 hvcurveto
            -69 -275 rlineto
            -52 145 185 -28 143 hhcurveto
            return
          </CharString>
          <CharString index="11">
            -137 -95 -139 -140 hvcurveto
            196 -10 rlineto
            61 33 23 40 vhcurveto
            return
          </CharString>
          <CharString index="12">
            62 -86 callsubr
            1207 -39 callgsubr
            80 1030 hintmask 01011000
            891 750 rmoveto
            119 65 71 110 139 vvcurveto
            271 -201 142 -285 -281 -203 -142 -271 -139 73 -109 120 -65 vhcurveto
            -136 -67 -88 -120 -161 vvcurveto
            -283 222 -140 296 297 215 140 283 161 -84 119 -135 67 vhcurveto
            hintmask 10101000
            -296 437 rmoveto
            86 42 -53 -92 -91 -39 -62 -86 -86 -41 62 91 92 41 53 83 hvcurveto
            3 -917 rmoveto
            -92 -66 63 103 108 65 55 91 93 61 -55 -108 -103 -62 -63 -90 hvcurveto
            endchar
          </CharString>
          <CharString index="13">
            rmoveto
            -55 callsubr
            -340 282 rlineto
            -18 callsubr
            -334 -277 rlineto
            -19 275 vlineto
            return
          </CharString>
          <CharString index="14">
            -57 -87 callsubr
            96 878 vstem
            596 hmoveto
            378 760 hlineto
            282 -188 168 -315 vhcurveto
            -375 -292 343 hlineto
            105 4 callgsubr
          </CharString>
          <CharString index="15">
            187 -320 vlineto
            67 47 rlineto
            hintmask 11010000
            167 120 69 66 125 vvcurveto
            167 -117 89 -208 -186 -121 -129 -154 vhcurveto
            234 hlineto
            47 30 48 56 54 25 -24 -43 -23 -33 -65 -63 -53 vhcurveto
            -285 -248 rlineto
            -157 vlineto
            endchar
          </CharString>
          <CharString index="16">
            -198 -319 rlineto
            293 hlineto
            return
          </CharString>
          <CharString index="17">
            rmoveto
            -745 vlineto
            -43 -27 -46 -26 -75 hhcurveto
            -87 -40 45 67 hvcurveto
            702 -359 -700 vlineto
            hintmask 10110000
            -286 149 -116 214 vhcurveto
            hintmask 10101000
            121 97 52 87 67 hvcurveto
            hintmask 01101000
            11 -119 rlineto
            335 1082 hlineto
            endchar
          </CharString>
          <CharString index="18">
            rmoveto
            302 -1018 -54 callsubr
            1014 301 -641 300 541 290 -541 263 vlineto
            endchar
          </CharString>
          <CharString index="19">
            65 47 42 58 58 -47 42 -65 -66 -48 -42 -58 return
          </CharString>
          <CharString index="20">
            21 -21 9 callsubr
            return
          </CharString>
          <CharString index="21">
            -20 290 -269 -21 return
          </CharString>
          <CharString index="22">
            73 -289 rlineto
            346 hlineto
            -80 404 rlineto
            -13 65 -7 68 66 vvcurveto
            607 -633 -292 261 -450 vlineto
            -107 -58 -87 -41 -127 hhcurveto
            -35 -38 4 6 -40 hvcurveto
            return
          </CharString>
          <CharString index="23">
            -899 -1165 892 289 -532 168 447 290 -447 128 return
          </CharString>
          <CharString index="24">
            795 10 callsubr
            rmoveto
            -392 -318 -324 -423 -423 318 -326 392 391 320 326 423 423 -320 324 -391 hvcurveto
            -1371 vmoveto
            -325 -263 271 353 353 263 269 325 324 263 -269 -353 -353 -263 -271 -324 hvcurveto
            return
          </CharString>
          <CharString index="25">
            -196 170 -130 196 134 73 49 64 50 return
          </CharString>
          <CharString index="26">
            rmoveto
            469 vlineto
            272 -186 165 -304 vhcurveto
            -370 -292 341 hlineto
            90 50 -46 -80 hvcurveto
            -499 -547 -293 1064 281 vlineto
            return
          </CharString>
          <CharString index="27">
            -11 -86 callsubr
            441 227 164 290 return
          </CharString>
          <CharString index="28">
            rlineto
            93 -5 38 -16 -46 vvcurveto
            -51 -32 -21 -46 vhcurveto
            7 -208 rlineto
            252 133 103 156 return
          </CharString>
          <CharString index="29">
            1163 -64 callsubr
            -1036 -292 113 hlineto
            -45 -77 -23 -143 -1 -125 -1 -125 rcurveline
            109 -73 198 -28 142 41 rrcurveto
            233 vlineto
            -16 -2 -38 2 -30 6 rrcurveto
            78 vlineto
            66 6 69 21 78 vhcurveto
            227 -1334 374 hlineto
            return
          </CharString>
          <CharString index="30">
            rmoveto
            378 698 -552 -292 174 hlineto
            return
          </CharString>
          <CharString index="31">
            703 -25 rmoveto
            329 219 216 323 hvcurveto
            302 vlineto
            258 -135 151 -227 -81 -105 -28 -41 -75 vhcurveto
            30 -240 rlineto
            4 40 29 0 23 hhcurveto
            85 37 -40 -94 hvcurveto
            -320 vlineto
            -122 -68 -82 -102 -101 -68 82 122 vhcurveto
            return
          </CharString>
          <CharString index="32">
            -292 170 hlineto
            -43 -78 -15 -109 -61 vvcurveto
            -251 vlineto
            -93 -52 -44 -82 vhcurveto
            -23 -21 1 -20 hhcurveto
            hintmask 01011000
            -289 vlineto
            hintmask 10011000
            -10 59 47 -5 64 hhcurveto
            247 149 153 257 hvcurveto
            317 vlineto
            56 4 80 9 76 vhcurveto
            return
          </CharString>
          <CharString index="33">
            272 21 -21 241 302 913 -20 return
          </CharString>
          <CharString index="34">
            1456 return
          </CharString>
          <CharString index="35">
            -353 rmoveto
            -88 callsubr
            return
          </CharString>
          <CharString index="36">
            rmoveto
            349 1 231 159 415 vvcurveto
            655 -889 -292 510 -425 vlineto
            hintmask 10111000
            -150 -71 -74 -187 -1 vhcurveto
            -66 1 -80 10 -97 18 -57 -274 rcurveline
            hintmask 01111000
            -27 128 120 -16 109 hhcurveto
            return
          </CharString>
          <CharString index="37">
            -174 254 172 vlineto
            136 45 86 38 72 vhcurveto
            -153 81 rlineto
            -89 -81 -95 -154 -138 vvcurveto
            return
          </CharString>
          <CharString index="38">
            188 189 155 88 180 hstemhm
            56 639 -233 233 return
          </CharString>
          <CharString index="39">
            188 435 188 hstem
            66 234 171 233 vstem
            704 return
          </CharString>
          <CharString index="40">
            -138 -50 65 234 hvcurveto
            21 vlineto
            218 59 81 116 148 51 -82 -72 -5 -29 callgsubr
            253 -23 -184 191 -346 hhcurveto
            -320 -215 -220 -370 hvcurveto
            -20 vlineto
            return
          </CharString>
          <CharString index="41">
            -151 0 289 168 290 128 290 return
          </CharString>
          <CharString index="42">
            308 -20 rmoveto
            248 148 155 255 hvcurveto
            820 -583 -292 204 -498 vlineto
            -92 -38 -44 -84 -46 -48 3 6 -50 vhcurveto
            1 -282 rlineto
            -22 101 63 -9 84 hhcurveto
            return
          </CharString>
          <CharString index="43">
            -63 callgsubr
            rmoveto
            return
          </CharString>
          <CharString index="44">
            rmoveto
            -91 callgsubr
            return
          </CharString>
          <CharString index="45">
            237 -20 301 -280 -21 10 callsubr
            -20 return
          </CharString>
          <CharString index="46">
            207 -125 205 return
          </CharString>
          <CharString index="47">
            1363 rmoveto
            66 47 41 58 58 -47 43 -66 -65 -49 -43 -58 -58 30 callsubr
            return
          </CharString>
          <CharString index="48">
            1363 rmoveto
            67 46 41 58 58 -46 43 -67 -64 -50 -43 -58 8 callsubr
            return
          </CharString>
          <CharString index="49">
            785 -19 vlineto
            -383 -123 rlineto
            -177 vlineto
            170 31 rlineto
            -516 vlineto
            endchar
          </CharString>
          <CharString index="50">
            486 hlineto
            386 285 292 408 hvcurveto
            55 vlineto
            408 -284 293 -396 vhcurveto
            298 -756 rmoveto
            -270 -107 -129 -182 vhcurveto
            -113 return
          </CharString>
          <CharString index="51">
            196 392 195 hintmask 00000000
            return
          </CharString>
          <CharString index="52">
            -83 callgsubr
            14 hlineto
            return
          </CharString>
          <CharString index="53">
            -1456 return
          </CharString>
          <CharString index="54">
            -73 callsubr
            -371 -54 callsubr
            vlineto
            endchar
          </CharString>
          <CharString index="55">
            1 -21 41 -21 return
          </CharString>
          <CharString index="56">
            609 hmoveto
            385 15 220 185 351 vvcurveto
            659 -1060 -292 681 -375 vlineto
            -172 -77 -78 -149 -8 vhcurveto
            return
          </CharString>
          <CharString index="57">
            rmoveto
            -169 -577 -160 577 rlineto
            -384 hlineto
            377 -1096 return
          </CharString>
          <CharString index="58">
            86 -16 284 628 285 return
          </CharString>
          <CharString index="59">
            -95 -82 80 -103 hhcurveto
            return
          </CharString>
          <CharString index="60">
            rmoveto
            -254 606 rlineto
            -401 hlineto
            465 -939 rlineto
            -517 380 517 vlineto
            464 939 rlineto
            -401 hlineto
            endchar
          </CharString>
          <CharString index="61">
            -47 callgsubr
            -359 -624 vlineto
            -363 624 rlineto
            -360 -33 callgsubr
            624 hlineto
            363 -624 rlineto
            endchar
          </CharString>
          <CharString index="62">
            -73 callsubr
            -372 -846 vlineto
            -485 846 rlineto
            -373 -42 callgsubr
            847 hlineto
            486 -847 rlineto
            endchar
          </CharString>
          <CharString index="63">
            50 -41 64 return
          </CharString>
          <CharString index="64">
            521 25 callsubr
            -188 168 -316 vhcurveto
            -375 -292 344 hlineto
            104 -4 callsubr
            return
          </CharString>
          <CharString index="65">
            155 1 177 rcurveline
            -336 -213 hlineto
            -99 -46 -134 return
          </CharString>
          <CharString index="66">
            -81 callgsubr
            -48 callsubr
            return
          </CharString>
          <CharString index="67">
            -16 rmoveto
            171 135 127 178 34 hvcurveto
            6 hlineto
            return
          </CharString>
          <CharString index="68">
            -73 callsubr
            rmoveto
            return
          </CharString>
          <CharString index="69">
            188 152 149 135 188 hstemhm
            463 233 -218 234 hintmask 00000000
            hintmask 11101000
            562 return
          </CharString>
          <CharString index="70">
            rmoveto
            365 460 hlineto
            97 8 73 8 48 vhcurveto
            -300 hlineto
            -22 -15 -59 -69 -178 vvcurveto
            endchar
          </CharString>
          <CharString index="71">
            -88 callsubr
            -59 return
          </CharString>
          <CharString index="72">
            244 hmoveto
            388 hlineto
            -140 918 rlineto
            284 292 -713 -283 hlineto
            60 -20 rlineto
            return
          </CharString>
          <CharString index="73">
            188 hstem
            46 652 vstem
            698 return
          </CharString>
          <CharString index="74">
            rmoveto
            116 82 80 106 107 -82 80 -116 -117 -81 -80 -107 -106 81 -80 117 hvcurveto
            return
          </CharString>
          <CharString index="75">
            -426 276 151 -21 834 288 hstem
            return
          </CharString>
          <CharString index="76">
            21 -18 callgsubr
            return
          </CharString>
          <CharString index="77">
            -73 callsubr
            -20 return
          </CharString>
          <CharString index="78">
            21 -21 hstem
            return
          </CharString>
          <CharString index="79">
            hintmask 01110000
            683 16 callsubr
            -99 -76 -39 -65 -58 hvcurveto
            538 -359 -1536 return
          </CharString>
          <CharString index="80">
            77 42 69 59 vhcurveto
            -507 360 1498 vlineto
            -508 -812 rmoveto
            -118 return
          </CharString>
          <CharString index="81">
            rmoveto
            65 47 43 57 58 -47 42 -65 -65 -49 -42 -58 -57 49 -43 65 hvcurveto
            endchar
          </CharString>
          <CharString index="82">
            1372 rmoveto
            631 185 -631 hlineto
            return
          </CharString>
          <CharString index="83">
            hstem
            398 234 vstem
            708 return
          </CharString>
          <CharString index="84">
            148 hvcurveto
            21 vlineto
            return
          </CharString>
          <CharString index="85">
            -123 30 -39 25 50 vvcurveto
            25 36 59 90 85 58 -60 -53 -29 callgsubr
            return
          </CharString>
          <CharString index="86">
            290 hstem
            return
          </CharString>
          <CharString index="87">
            hstem
            -8 1419 vstem
            return
          </CharString>
          <CharString index="88">
            rmoveto
            515 152 -515 hlineto
            endchar
          </CharString>
          <CharString index="89">
            -205 hlineto
            return
          </CharString>
          <CharString index="90">
            -240 125 -103 229 72 62 9 22 63 vhcurveto
            266 vlineto
            return
          </CharString>
          <CharString index="91">
            rmoveto
            65 47 41 58 58 -47 43 -65 return
          </CharString>
          <CharString index="92">
            264 -29 297 164.73 -5 callsubr
            return
          </CharString>
          <CharString index="93">
            1082 rmoveto
            -16 -97 rlineto
            73 -57 -82 44 -124 hhcurveto
            -277 return
          </CharString>
          <CharString index="94">
            1557 rmoveto
            -314 -184 -147 -273 hvcurveto
            -55 return
          </CharString>
          <CharString index="95">
            -74 117 116 82 74 107 106 -82 74 -116 hvcurveto
            return
          </CharString>
          <CharString index="96">
            vlineto
            -506 -814 rmoveto
            -118 return
          </CharString>
          <CharString index="97">
            717 -41 293 958 -20 return
          </CharString>
          <CharString index="98">
            0 293 625 22 callgsubr
            return
          </CharString>
          <CharString index="99">
            -1130 -647 200 return
          </CharString>
          <CharString index="100">
            124 203 124 return
          </CharString>
          <CharString index="101">
            226 hintmask 00000000
            return
          </CharString>
          <CharString index="102">
            257.27 return
          </CharString>
          <CharString index="103">
            52 -47 -94 hvcurveto
            return
          </CharString>
          <CharString index="104">
            -106 -106 82 -81 117 116 81 81 106 106 -81 return
          </CharString>
          <CharString index="105">
            178 hlineto
            -12 -107 -56 -14 -61 vvcurveto
            -58 49 -41 64 return
          </CharString>
          <CharString index="106">
            -4 -24 -21 0 -39 hhcurveto
            endchar
          </CharString>
          <CharString index="107">
            196 392 195 hintmask 0000000000000000
            hintmask 0110010010000000
            return
          </CharString>
          <CharString index="108">
            -549 -360 270 1537 272 hstem
            return
          </CharString>
          <CharString index="109">
            104 hlineto
            194 104 -134 -263 hvcurveto
            endchar
          </CharString>
          <CharString index="110">
            227 hintmask 00000000
            return
          </CharString>
          <CharString index="111">
            -17 1252 return
          </CharString>
          <CharString index="112">
            41 1133 return
          </CharString>
          <CharString index="113">
            1217 return
          </CharString>
          <CharString index="114">
            835 rcurveline
            -381 hlineto
            180 -793 13 return
          </CharString>
          <CharString index="115">
            -58 -44 callsubr
            hvcurveto
            return
          </CharString>
          <CharString index="116">
            -71 callgsubr
            hstem
            return
          </CharString>
          <CharString index="117">
            1476 return
          </CharString>
          <CharString index="118">
            -91 -38 -77 vhcurveto
            166 -81 rlineto
            89 85 return
          </CharString>
          <CharString index="119">
            31 callgsubr
            1190 -38 callgsubr
            return
          </CharString>
          <CharString index="120">
            324 -139 106 -199 vhcurveto
            endchar
          </CharString>
          <CharString index="121">
            hstem
            5 callsubr
            vstem
            return
          </CharString>
          <CharString index="122">
            hstem
            4 callsubr
            vstem
            return
          </CharString>
          <CharString index="123">
            1102 rmoveto
            return
          </CharString>
          <CharString index="124">
            237 -145 98 -315 64 vhcurveto
            return
          </CharString>
          <CharString index="125">
            66 47 42 57 61 -56 14 -13 107 return
          </CharString>
          <CharString index="126">
            329 -146 218 -275 vhcurveto
            return
          </CharString>
          <CharString index="127">
            -128 -259 128 -500 vlineto
            return
          </CharString>
          <CharString index="128">
            -8 callsubr
            94 200 return
          </CharString>
          <CharString index="129">
            -568 rmoveto
            -148 -31 -116 return
          </CharString>
          <CharString index="130">
            -1130 1188 237 hstem
            return
          </CharString>
          <CharString index="131">
            hstem
            317 232 vstem
            549 return
          </CharString>
          <CharString index="132">
            32 callsubr
            760 hlineto
            282 return
          </CharString>
          <CharString index="133">
            hintmask 00000000
            hintmask 11000100
            return
          </CharString>
          <CharString index="134">
            335.5 return
          </CharString>
          <CharString index="135">
            -54 -437 288 return
          </CharString>
          <CharString index="136">
            558 295 hstem
            return
          </CharString>
          <CharString index="137">
            49 -41 65 hvcurveto
            return
          </CharString>
          <CharString index="138">
            96 203 99 return
          </CharString>
          <CharString index="139">
            hmoveto
            379 return
          </CharString>
        <CharString name=".notdef">
          221 -555 186 90 126 90 62 89 127 89 162 89 65 151 60 91 63 89 100 89 73 92 97 92 70 89 100 89 181 hstemhm
          251 200 89 89 -89 270 -89 89 89 208 hintmask 111111111111111101100000
          1107 2146 rmoveto
          -856 -2701 856 hlineto
          -208 2520 rmoveto
          -89 -178 -100 178 -89 -448 89 178 100 -175 89 vlineto
          267 -348 rmoveto
          -189 178 -92 -448 281 vlineto
          178 -92 rmoveto
          -89 -97 89 hlineto
          270 -165 rmoveto
          -89 -178 -189 -270 89 178 100 -178 89 vlineto
          448 -162 rmoveto
          -270 -448 91 359 179 vlineto
          89 -330 rmoveto
          -305 -448 305 89 -216 270 127 -89 -62 -92 151 vlineto
          270 -467 rmoveto
          -305 -448 305 vlineto
          hintmask 111100000000001010100000
          359 -89 rmoveto
          -270 -127 270 hlineto
          89 -151 rmoveto
          -90 -86 vlineto
          -189 -126 rlineto
          275 -90 -448 90 hlineto
          189 126 rlineto
          -189 90 hlineto
          endchar
        </CharString>
        <CharString name=".null">
          -1130 endchar
        </CharString>
        <CharString name="A">
          -74 callsubr
          -20 callsubr
          1009 hmoveto
          -103 callgsubr
        </CharString>
        <CharString name="A.smcp">
          -48 callgsubr
          15 callsubr
          874 hmoveto
          -104 callgsubr
        </CharString>
        <CharString name="AE">
          796 0 295 29 295 -27 295 274 295 hstemhm
          22 1823 hintmask 10111000
          1295 295 rmoveto
          -13 297 rlineto
          422 295 -434 hlineto
          -12 274 rlineto
          527 295 -1051 hlineto
          -712 -54 callsubr
          rlineto
          413 hlineto
          hintmask 11011000
          144 324 rlineto
          356 hlineto
          hintmask 10111000
          14 -324 rlineto
          896 295 hlineto
          hintmask 11011000
          -1134 324 rmoveto
          194 436 18 -436 rlineto
          endchar
        </CharString>
        <CharString name="AE.smcp">
          501 0 288 -119 283 7 289 129 288 hstemhm
          -80 1657 hintmask 10111000
          1038 288 rmoveto
          -7 171 rlineto
          440 289 -451 hlineto
          -5 129 rlineto
          516 288 -1082 hlineto
          -529 -1165 rlineto
          391 hlineto
          hintmask 01011000
          69 169 rlineto
          306 hlineto
          hintmask 10111000
          7 -169 rlineto
          884 288 hlineto
          hintmask 01011000
          -1080 164 rmoveto
          163 398 16 -398 rlineto
          endchar
        </CharString>
        <CharString name="Aacute">
          -74 callsubr
          91 319 -20 callsubr
          1094 1846 rmoveto
          -373 hlineto
          -91 callsubr
          193 -1527 rmoveto
          -103 callgsubr
        </CharString>
        <CharString name="Aacute.smcp">
          -48 callgsubr
          813 319 15 callsubr
          1002 1566 rmoveto
          -373 hlineto
          -91 callsubr
          150 -1247 rmoveto
          -104 callgsubr
        </CharString>
        <CharString name="Acircumflex">
          -74 callsubr
          113 14 -20 callsubr
          702 1676 -94 callsubr
          468 -1549 rmoveto
          -103 callgsubr
        </CharString>
        <CharString name="Acircumflex.smcp">
          -48 callgsubr
          835 14 15 callsubr
          610 1396 -94 callsubr
          425 -1269 rmoveto
          -104 callgsubr
        </CharString>
        <CharString name="Adieresis">
          -74 callsubr
          -20 callsubr
          966 1535 -104 callsubr
          576 -1534 rmoveto
          -103 callgsubr
        </CharString>
        <CharString name="Adieresis.smcp">
          -48 callgsubr
          15 callsubr
          874 1255 -104 callsubr
          533 -1254 rmoveto
          -104 callgsubr
        </CharString>
        <CharString name="Agrave">
          -74 callsubr
          91 319 -20 callsubr
          910 1527 -99 callsubr
          388 -1527 rmoveto
          -103 callgsubr
        </CharString>
        <CharString name="Agrave.smcp">
          -48 callgsubr
          813 319 15 callsubr
          818 1247 -99 callsubr
          345 -1247 rmoveto
          -104 callgsubr
        </CharString>
        <CharString name="Aring">
          -74 callsubr
          95 31 callsubr
          hstem
          479 -7 callsubr
          vstem
          704 1531 -87 callgsubr
          305 -1830 rmoveto
          -103 callgsubr
        </CharString>
        <CharString name="Aring.smcp">
          -48 callgsubr
          817 31 callsubr
          hstem
          387 -7 callsubr
          vstem
          612 1251 -87 callgsubr
          262 -1550 rmoveto
          -104 callgsubr
        </CharString>
        <CharString name="Atilde">
          -74 callsubr
          127 -61 callsubr
          hstemhm
          -8 1419 -1101 -56 callsubr
          hintmask 11101010
          579 1645 rmoveto
          hintmask 11110001
          -64 callgsubr
          hintmask 11101010
          -48 callsubr
          -96 callsubr
          hintmask 11110100
          430 -1645 rmoveto
          -103 callgsubr
        </CharString>
        <CharString name="Atilde.smcp">
          -48 callgsubr
          849 -61 callsubr
          hstemhm
          4 callsubr
          -1017 -56 callsubr
          hintmask 11010100
          487 1365 rmoveto
          hintmask 11100010
          -64 callgsubr
          hintmask 11010100
          -48 callsubr
          -96 callsubr
          hintmask 11101000
          387 -1365 rmoveto
          -104 callgsubr
        </CharString>
        <CharString name="B">
          198 0 301 300 250 303 30 callgsubr
          1148 vstem
          1022 737 rmoveto
          149 57 49 126 130 vvcurveto
          272 -221 134 -368 vhcurveto
          -529 -54 callsubr
          591 hlineto
          370 187 144 290 125 -59 134 -169 44 hvcurveto
          -391 417 rmoveto
          152 64 -46 -113 -98 -54 -46 -165 hvcurveto
          -153 303 hlineto
          218 -853 rmoveto
          -218 300 233 hlineto
          124 46 -63 -97 -73 -48 -67 -137 hvcurveto
          endchar
        </CharString>
        <CharString name="B.smcp">
          22 0 289 164 232 190 -15 callgsubr
          1022 vstem
          904 580 rmoveto
          131 48 37 110 103 vvcurveto
          217 -190 107 -333 vhcurveto
          -476 -1165 526 hlineto
          336 160 96 238 90 -46 118 -145 38 hvcurveto
          -316 295 rmoveto
          86 38 -25 -74 -62 -35 -29 -105 hvcurveto
          -139 190 hlineto
          166 -586 rmoveto
          -166 164 181 hlineto
          91 32 -30 -54 -29 -30 -51 -108 hvcurveto
          endchar
        </CharString>
        <CharString name="C">
          216 -20 308 -287 -21 1190 19 callgsubr
          hintmask 01011000
          1295 502 rmoveto
          -371 hlineto
          hintmask 10101000
          26 callgsubr
          20 callgsubr
          -57 callgsubr
          -446 228 -271 396 vhcurveto
          hintmask 01011000
          360 238 207 315 11 hvcurveto
          endchar
        </CharString>
        <CharString name="C.smcp">
          31 -65 callgsubr
          908 290 hstemhm
          41 1088 hintmask 01110000
          1126 415 rmoveto
          -358 hlineto
          hintmask 10110000
          -107 7 -81 -35 -105 hhcurveto
          -67 callsubr
          -370 196 -218 352 vhcurveto
          hintmask 01110000
          311 219 164 267 7 hvcurveto
          endchar
        </CharString>
        <CharString name="C.ss06">
          232 -21 301 895 0 callgsubr
          58 1261 vstem
          1316 502 rmoveto
          -372 hlineto
          -140 -15 -77 -82 -152 hhcurveto
          -186 -82 150 279 hvcurveto
          39 vlineto
          282 112 145 160 181 43 -78 -154 19 vhcurveto
          372 hlineto
          331 -30 -197 203 -388 hhcurveto
          -370 -276 -275 -456 hvcurveto
          -37 vlineto
          -456 249 -274 393 367 220 171 352 29 vhcurveto
          endchar
        </CharString>
        <CharString name="Ccedilla">
          216 -480 27 callgsubr
          22 -21 1178 19 callgsubr
          hintmask 10101100
          686 288 rmoveto
          20 callgsubr
          hintmask 10110100
          -57 callgsubr
          -392 176 -256 311 -57 vhcurveto
          -26 -125 -79 callsubr
          hvcurveto
          hintmask 11001100
          -6 callgsubr
          vhcurveto
          6 39 282 47 179 191 10 273 rlinecurve
          -371 hlineto
          hintmask 10101100
          26 callgsubr
          endchar
        </CharString>
        <CharString name="Ccedilla.smcp">
          31 -475 27 callgsubr
          896 -21 callsubr
          41 1088 vstem
          589 273 rmoveto
          -67 callsubr
          -320 147 -206 267 -50 vhcurveto
          -26 -124 -79 callsubr
          -6 callgsubr
          hvcurveto
          6 39 234 43 156 152 6 224 rlinecurve
          -358 hlineto
          -107 7 -81 -35 -105 hhcurveto
          endchar
        </CharString>
        <CharString name="D">
          192 -8 callgsubr
          102 1157 vstem
          579 -39 callsubr
          -477 -54 callsubr
          -57 callsubr
          853 2 callsubr
        </CharString>
        <CharString name="D.smcp">
          3 0 289 586 -15 callgsubr
          1018 vstem
          498 -35 callgsubr
          -425 -1165 -53 callgsubr
          586 8 callgsubr
        </CharString>
        <CharString name="D.ss06">
          234 -8 callgsubr
          98 1208 vstem
          563 -39 callsubr
          -465 -54 callsubr
          473 hlineto
          454 281 319 387 hvcurveto
          43 vlineto
          387 -280 320 -463 vhcurveto
          370 -750 rmoveto
          -211 -92 -194 -298 vhcurveto
          -72 853 64 hlineto
          309 89 -200 -203 hvcurveto
          endchar
        </CharString>
        <CharString name="E">
          -62 callgsubr
          28 callgsubr
          1120 1154 -89 callsubr
        </CharString>
        <CharString name="E.smcp">
          -66 callsubr
          hstem
          73 899 vstem
          972 875 rmoveto
          290 -84 callsubr
          vlineto
          endchar
        </CharString>
        <CharString name="Eacute">
          -62 callgsubr
          67 319 28 callgsubr
          1040 1842 rmoveto
          -373 hlineto
          -91 callsubr
          358 -369 -89 callsubr
        </CharString>
        <CharString name="Eacute.smcp">
          -66 callsubr
          82 -38 callgsubr
          73 899 vstem
          958 1566 rmoveto
          -373 hlineto
          -91 callsubr
          292 -372 rmoveto
          290 -84 callsubr
          vlineto
          endchar
        </CharString>
        <CharString name="Ecircumflex">
          -62 callgsubr
          89 14 28 callgsubr
          648 1672 -94 callsubr
          633 -391 -89 callsubr
        </CharString>
        <CharString name="Ecircumflex.smcp">
          -66 callsubr
          104 14 hstem
          73 936 vstem
          669 1565 rmoveto
          -18 callsubr
          -334 -277 rlineto
          -19 275 vlineto
          161 127 -55 callsubr
          -37 -118 rmoveto
          -84 callsubr
          539 hlineto
          endchar
        </CharString>
        <CharString name="Edieresis">
          -62 callgsubr
          28 callgsubr
          912 1531 -104 callsubr
          741 -376 -89 callsubr
        </CharString>
        <CharString name="Edieresis.smcp">
          -66 callsubr
          hstem
          73 914 vstem
          830 1255 -104 callsubr
          675 -89 rmoveto
          -84 callsubr
          539 hlineto
          endchar
        </CharString>
        <CharString name="Egrave">
          -62 callgsubr
          67 319 28 callgsubr
          856 1523 -99 callsubr
          553 -369 -89 callsubr
        </CharString>
        <CharString name="Egrave.smcp">
          -66 callsubr
          82 -38 callgsubr
          73 899 vstem
          774 1247 -99 callsubr
          487 -372 rmoveto
          290 -84 callsubr
          vlineto
          endchar
        </CharString>
        <CharString name="Eth">
          192 0 301 326 200 327 0 callgsubr
          -35 1294 vstem
          579 -39 callsubr
          -477 -629 -137 -200 137 -627 -57 callsubr
          326 234 200 -234 327 2 callsubr
        </CharString>
        <CharString name="Eth.smcp">
          3 0 289 186 200 200 -21 callsubr
          -139 1230 vstem
          498 -35 callgsubr
          -425 -490 -212 -200 212 -475 -53 callgsubr
          186 172 200 -172 200 8 callgsubr
        </CharString>
        <CharString name="Euro">
          62 -19 301 217 169 119 167 220 301 hstemhm
          84 1037 hintmask 00000000
          hintmask 11111000
          906 282 rmoveto
          -162 -114 29 188 -8 hvcurveto
          301 169 -302 119 302 167 -297 hlineto
          163 22 102 57 167 hhcurveto
          52 62 -13 -17 44 hvcurveto
          46 300 rlineto
          19 -74 -80 12 -76 hhcurveto
          -356 -253 -181 -340 -32 hvcurveto
          -166 -167 163 -119 -163 -169 163 hlineto
          -342 12 253 -176 343 hhcurveto
          93 91 11 19 82 hvcurveto
          -46 299 rlineto
          -20 -52 -57 -8 -60 hhcurveto
          endchar
        </CharString>
        <CharString name="Euro.smcp">
          -84 5 -21 364 200 55 201 92 -15 callgsubr
          901 vstem
          754 274 rmoveto
          -81 -49 25 49 -26 hvcurveto
          308 200 -332 55 332 201 -310 hlineto
          59 25 49 33 82 hhcurveto
          79 47 -10 -19 75 hvcurveto
          21 284 rlineto
          26 -79 -58 9 -85 hhcurveto
          -284 -189 -146 -236 -51 hvcurveto
          -155 -201 141 -55 -141 -200 154 hlineto
          -220 50 191 -144 286 hhcurveto
          84 58 11 20 76 hvcurveto
          -19 284 rlineto
          -11 -66 -55 -14 -78 hhcurveto
          endchar
        </CharString>
        <CharString name="F">
          -11 21 -21 563 301 290 30 callgsubr
          986 vstem
          1088 1154 rmoveto
          302 -986 -42 callgsubr
          563 562 301 -562 290 vlineto
          endchar
        </CharString>
        <CharString name="F.smcp">
          -170 21 -21 424 290 161 -15 callgsubr
          867 vstem
          940 875 rmoveto
          290 -867 -33 callgsubr
          424 474 290 -474 161 vlineto
          endchar
        </CharString>
        <CharString name="G">
          267 -20 301 -280 -21 548 264 384 301 hstemhm
          77 1234 hintmask 01111000
          1311 176 rmoveto
          616 -605 -264 231 vlineto
          hintmask 10111000
          -198 vlineto
          -23 -27 -62 -26 -97 hhcurveto
          -210 -85 132 277 hvcurveto
          77 vlineto
          283 108 126 153 154 62 -68 -141 19 vhcurveto
          357 hlineto
          301 -27 -167 209 -412 hhcurveto
          -358 -268 -255 -457 hvcurveto
          -75 vlineto
          -457 253 -253 392 vhcurveto
          hintmask 01111000
          312 199 113 83 78 hvcurveto
          endchar
        </CharString>
        <CharString name="G.smcp">
          49 -65 callgsubr
          425 247 236 290 hstemhm
          57 1085 hintmask 01101000
          1142 134 rmoveto
          522 -550 -247 189 vlineto
          hintmask 10111000
          -117 vlineto
          -10 -21 -51 -9 -58 hhcurveto
          -173 -62 83 201 hvcurveto
          52 vlineto
          210 98 73 105 118 46 -32 -108 16 vhcurveto
          342 hlineto
          254 -22 -143 176 -372 hhcurveto
          -302 -245 -203 -372 hvcurveto
          -50 vlineto
          -372 217 -201 345 vhcurveto
          hintmask 01101000
          264 186 82 68 73 hvcurveto
          endchar
        </CharString>
        <CharString name="G.ss06">
          272 -21 301 -280 -21 526 266 404 302 0 -20 hstemhm
          58 1261 hintmask 01101100
          1319 175 rmoveto
          596 -576 -266 202 vlineto
          hintmask 10110100
          -192 vlineto
          -21 -25 -61 -12 -87 hhcurveto
          -221 -119 177 230 hvcurveto
          69 vlineto
          253 114 166 183 125 90 -67 -141 15 -29 callgsubr
          301 -25 -195 209 -383 hhcurveto
          -386 -271 -296 -427 hvcurveto
          -67 vlineto
          -408 293 -300 421 vhcurveto
          hintmask 01101100
          286 188 113 83 73 hvcurveto
          endchar
        </CharString>
        <CharString name="H">
          306 21 -21 590 301 565 -20 hstem
          102 1231 vstem
          961 -39 callsubr
          -565 -486 565 -373 -42 callgsubr
          590 486 -590 372 -73 callsubr
          vlineto
          endchar
        </CharString>
        <CharString name="H.smcp">
          98 21 -21 424 -15 callgsubr
          1083 vstem
          798 -35 callgsubr
          -451 -365 451 -360 -33 callgsubr
          424 365 -424 358 -47 callgsubr
          vlineto
          endchar
        </CharString>
        <CharString name="I">
          -9 callgsubr
          hstem
          128 371 vstem
          499 hmoveto
          -53 callsubr
        </CharString>
        <CharString name="I.smcp">
          -576 -29 callsubr
          98 359 vstem
          457 hmoveto
          -52 callgsubr
        </CharString>
        <CharString name="Iacute">
          -9 callgsubr
          87 -38 callgsubr
          128 577 vstem
          332 1842 rmoveto
          -91 callsubr
          278 7 callgsubr
          -206 -1842 rmoveto
          -53 callsubr
        </CharString>
        <CharString name="Iacute.smcp">
          -576 -10 callgsubr
          98 573 vstem
          298 1566 rmoveto
          -91 callsubr
          278 7 callgsubr
          -214 -1566 rmoveto
          -52 callgsubr
        </CharString>
        <CharString name="Icircumflex">
          -9 callgsubr
          109 14 hstem
          -123 879 vstem
          756 1559 -99 callgsubr
          -257 -1545 rmoveto
          -53 callsubr
        </CharString>
        <CharString name="Icircumflex.smcp">
          -576 21 -21 1269 14 hstem
          -157 879 vstem
          722 1283 -99 callgsubr
          -265 -1269 rmoveto
          -52 callgsubr
        </CharString>
        <CharString name="Idieresis">
          -9 callgsubr
          hstem
          -112 846 vstem
          577 1811 -105 callsubr
          455 -1810 rmoveto
          -53 callsubr
        </CharString>
        <CharString name="Idieresis.smcp">
          -576 -29 callsubr
          -146 846 vstem
          543 1535 -105 callsubr
          447 -1534 rmoveto
          -52 callgsubr
        </CharString>
        <CharString name="Igrave">
          -9 callgsubr
          87 -38 callgsubr
          -53 574 vstem
          521 1523 -99 callsubr
          267 -1523 rmoveto
          -53 callsubr
        </CharString>
        <CharString name="Igrave.smcp">
          -576 -10 callgsubr
          -87 574 vstem
          487 1247 -99 callsubr
          259 -1247 rmoveto
          -52 callgsubr
        </CharString>
        <CharString name="J">
          24 -20 301 -280 -21 10 callsubr
          -20 hstemhm
          35 1015 hintmask 01110000
          678 -39 callsubr
          -989 vlineto
          hintmask 10110000
          -114 -47 -72 -88 -90 -44 31 139 vhcurveto
          -374 hlineto
          -325 212 -146 296 283 224 194 293 vhcurveto
          989 vlineto
          endchar
        </CharString>
        <CharString name="J.smcp">
          -132 -65 callgsubr
          hstemhm
          27 893 hintmask 01100000
          561 -35 callgsubr
          -727 vlineto
          hintmask 10100000
          -122 -20 -43 -62 -72 -20 44 88 vhcurveto
          -360 hlineto
          -292 175 -129 277 236 205 164 290 vhcurveto
          727 vlineto
          endchar
        </CharString>
        <CharString name="K">
          184 -79 callgsubr
          hstem
          102 1242 vstem
          1344 -39 callsubr
          -462 hlineto
          -289 -433 -118 -191 rlineto
          624 -373 -42 callgsubr
          359 vlineto
          139 153 282 -512 rlineto
          442 hlineto
          -472 809 rlineto
          endchar
        </CharString>
        <CharString name="K.alt">
          197 -79 callgsubr
          hstem
          98 1256 vstem
          914 hmoveto
          440 hlineto
          -426 789 375 667 rlineto
          -451 hlineto
          -246 -541 rlineto
          -135 541 -373 -42 callgsubr
          554 167 hlineto
          endchar
        </CharString>
        <CharString name="K.alt2">
          185 -79 callgsubr
          hstem
          98 1226 vstem
          1324 hmoveto
          -504 734 480 722 rlineto
          -461 hlineto
          -368 -626 rlineto
          626 -373 -42 callgsubr
          605 vlineto
          385 -605 rlineto
          endchar
        </CharString>
        <CharString name="K.smcp">
          7 -29 callsubr
          73 1093 vstem
          1166 -35 callgsubr
          -454 hlineto
          -200 -314 -79 -123 rlineto
          437 -360 -33 callgsubr
          318 vlineto
          13 -42 95 94 199 -370 rlineto
          421 hlineto
          -374 643 rlineto
          endchar
        </CharString>
        <CharString name="L">
          -19 0 301 1155 -20 hstem
          102 973 vstem
          475 301 rmoveto
          1155 -373 -54 callsubr
          973 301 vlineto
          endchar
        </CharString>
        <CharString name="L.smcp">
          -174 0 289 hstem
          73 855 vstem
          433 289 rmoveto
          876 -360 -1165 855 289 vlineto
          endchar
        </CharString>
        <CharString name="M">
          666 -79 callgsubr
          hstem
          102 1589 vstem
          1691 -39 callsubr
          -492 hlineto
          -303 -966 -303 966 rlineto
          -491 -54 callsubr
          374 275 hlineto
          -37 739 335 -1014 rlineto
          244 hlineto
          335 1015 -36 -740 rlineto
          -275 374 vlineto
          endchar
        </CharString>
        <CharString name="M.smcp">
          416 -29 callsubr
          73 1399 vstem
          1472 -35 callgsubr
          -478 hlineto
          -223 -697 -222 697 rlineto
          -476 -1165 361 117 hlineto
          -37 660 260 -777 rlineto
          229 hlineto
          261 785 -36 -668 rlineto
          -117 361 vlineto
          endchar
        </CharString>
        <CharString name="N">
          305 -79 callgsubr
          hstem
          102 1230 vstem
          1332 hmoveto
          -45 callsubr
        </CharString>
        <CharString name="N.smcp">
          97 -29 callsubr
          73 1082 vstem
          1155 hmoveto
          -46 callsubr
        </CharString>
        <CharString name="Ntilde">
          305 -79 callgsubr
          127 -61 callsubr
          hstemhm
          102 1230 -998 -56 callsubr
          hintmask 11100010
          1117 1844 -89 callgsubr
          215 -1844 rmoveto
          -45 callsubr
        </CharString>
        <CharString name="Ntilde.smcp">
          97 21 -21 1283 -61 callsubr
          hstemhm
          73 1082 -923 -56 callsubr
          hintmask 11000100
          1015 1564 rmoveto
          -81 callgsubr
          hintmask 10101000
          -48 callsubr
          -96 callsubr
          hintmask 11010000
          101 58 -82 122 hhcurveto
          hintmask 11000100
          -76 callgsubr
          hintmask 11010000
          140 -1564 rmoveto
          -46 callsubr
        </CharString>
        <CharString name="O">
          -54 callgsubr
          14 callgsubr
          1351 701 -107 callgsubr
        </CharString>
        <CharString name="O.smcp">
          -49 callsubr
          14 callsubr
          1174 565 -107 callsubr
        </CharString>
        <CharString name="O.ss06">
          349 -21 298 901 299 hstem
          58 1362 vstem
          1420 707 rmoveto
          42 vlineto
          398 -273 330 -409 -413 -267 -330 -398 vhcurveto
          -42 vlineto
          -399 269 -329 413 409 271 329 399 vhcurveto
          -372 44 rmoveto
          -44 vlineto
          -221 -102 -209 -206 -214 -94 209 221 vhcurveto
          44 vlineto
          221 92 206 214 206 104 -206 -221 vhcurveto
          endchar
        </CharString>
        <CharString name="OE">
          870 -20 290 -270 301 -300 -21 621 290 263 302 -270 -39 callgsubr
          91 1849 hintmask 01011001
          1940 1154 rmoveto
          302 -921 vlineto
          hintmask 00110011
          11 -89 -100 9 -101 hhcurveto
          -379 -259 -243 -353 hvcurveto
          -304 vlineto
          -353 261 -243 379 vhcurveto
          hintmask 01011001
          101 98 10 10 89 hvcurveto
          917 301 -641 300 541 290 -541 263 hlineto
          hintmask 10010101
          -845 -578 rmoveto
          306 vlineto
          205 106 99 173 67 65 -5 -8 61 vhcurveto
          -891 vlineto
          -7 -60 -65 -5 -66 hhcurveto
          -173 -108 102 204 hvcurveto
          endchar
        </CharString>
        <CharString name="Oacute">
          -54 callgsubr
          51 319 14 callgsubr
          723 1846 rmoveto
          -91 callsubr
          278 7 callgsubr
          255 -1145 -107 callgsubr
        </CharString>
        <CharString name="Oacute.smcp">
          -49 callsubr
          66 319 14 callsubr
          622 1566 rmoveto
          -91 callsubr
          278 7 callgsubr
          179 -1001 -107 callsubr
        </CharString>
        <CharString name="Ocircumflex">
          -54 callgsubr
          73 14 14 callgsubr
          1147 1563 -99 callgsubr
          204 -848 -107 callgsubr
        </CharString>
        <CharString name="Ocircumflex.smcp">
          -49 callsubr
          88 14 14 callsubr
          1046 1283 -99 callgsubr
          128 -704 -107 callsubr
        </CharString>
        <CharString name="Odieresis">
          -54 callgsubr
          14 callgsubr
          968 1815 -105 callsubr
          916 -1113 -107 callgsubr
        </CharString>
        <CharString name="Odieresis.smcp">
          -49 callsubr
          14 callsubr
          867 1535 -105 callsubr
          840 -969 -107 callsubr
        </CharString>
        <CharString name="Ograve">
          -54 callgsubr
          51 319 14 callgsubr
          912 1527 -99 callsubr
          728 -826 -107 callgsubr
        </CharString>
        <CharString name="Ograve.smcp">
          -49 callsubr
          66 319 14 callsubr
          811 1247 -99 callsubr
          652 -682 -107 callsubr
        </CharString>
        <CharString name="Oslash">
          279 -20 304 -283 -21 1191 305 0 -20 hstemhm
          75 1289 hintmask 01011000
          1150 1314 rmoveto
          116 204 rlineto
          -216 hlineto
          -56 -99 rlineto
          37 -82 -93 20 -100 hhcurveto
          -380 -264 -276 -446 hvcurveto
          -53 vlineto
          -236 74 -188 127 -125 vhcurveto
          -140 -247 rlineto
          216 hlineto
          78 138 rlineto
          -41 86 98 -22 107 hhcurveto
          374 269 275 446 hvcurveto
          53 vlineto
          243 -80 192 -134 125 vhcurveto
          -694 -613 rmoveto
          55 vlineto
          hintmask 01101000
          270 84 145 179 44 40 -10 -20 34 vhcurveto
          -361 -635 rlineto
          hintmask 01011000
          -13 55 -7 66 74 vvcurveto
          527 hmoveto
          hintmask 10011000
          -266 -93 -151 -169 -52 -44 13 25 -37 vhcurveto
          368 649 rlineto
          18 -59 9 -72 -84 vvcurveto
          endchar
        </CharString>
        <CharString name="Oslash.smcp">
          86 -16 284 -263 -21 912 285 42 -20 hstemhm
          36 1141 hintmask 01111000
          1177 1223 rmoveto
          -176 hlineto
          -91 -120 rlineto
          51 -86 -103 27 -114 hhcurveto
          -334 -232 -225 -357 hvcurveto
          -34 vlineto
          -173 55 -142 95 -100 vhcurveto
          -155 -205 rlineto
          176 hlineto
          89 117 rlineto
          -51 86 105 -27 117 hhcurveto
          326 239 224 357 hvcurveto
          34 vlineto
          174 -57 142 -96 101 vhcurveto
          -618 -451 rmoveto
          35 vlineto
          187 62 109 142 46 39 -14 -26 32 vhcurveto
          -310 -410 rlineto
          -7 35 -4 40 44 vvcurveto
          410 35 rmoveto
          -35 vlineto
          hintmask 10111000
          -181 -78 -116 -126 -50 -41 14 27 -31 vhcurveto
          312 414 rlineto
          hintmask 01111000
          9 -36 5 -41 -46 vvcurveto
          endchar
        </CharString>
        <CharString name="Otilde">
          -54 callgsubr
          87 -61 callsubr
          hstemhm
          5 callgsubr
          -1039 -56 callsubr
          hintmask 11100010
          1095 1844 -89 callgsubr
          256 -1143 -107 callgsubr
        </CharString>
        <CharString name="Otilde.smcp">
          -49 callsubr
          102 -61 callsubr
          hstemhm
          5 callsubr
          -963 -56 callsubr
          hintmask 11100010
          994 1564 -89 callgsubr
          180 -999 -107 callsubr
        </CharString>
        <CharString name="P">
          209 21 -21 472 303 379 30 callgsubr
          1159 vstem
          689 -39 callsubr
          -587 -42 callgsubr
          472 214 hlineto
          352 220 194 282 292 -220 216 -352 hvcurveto
          -681 vmoveto
          -214 379 214 hlineto
          136 58 -97 -111 -99 -58 -72 -136 hvcurveto
          endchar
        </CharString>
        <CharString name="P.smcp">
          31 21 -21 344 290 241 -15 callgsubr
          1018 vstem
          587 -35 callgsubr
          -514 -33 callgsubr
          344 154 hlineto
          308 196 166 225 248 -196 182 -308 hvcurveto
          -531 vmoveto
          -154 241 154 hlineto
          98 49 -64 -78 -55 -49 -44 -98 hvcurveto
          endchar
        </CharString>
        <CharString name="Q">
          284 -20 304 -283 -21 25 -21 1187 305 hstemhm
          67 1288 hintmask 00111000
          1355 701 rmoveto
          53 vlineto
          446 -271 276 -374 -379 -264 -276 -446 vhcurveto
          -53 vlineto
          hintmask 01011000
          -446 266 -275 379 27 27 1 3 26 vhcurveto
          312 -256 229 200 -226 183 rlineto
          hintmask 00111000
          154 122 94 204 264 vvcurveto
          hintmask 10011000
          -908 hmoveto
          55 vlineto
          270 84 145 179 169 96 -145 -270 vhcurveto
          -55 vlineto
          -266 -94 -151 -169 -179 -86 151 266 vhcurveto
          endchar
        </CharString>
        <CharString name="Q.smcp">
          86 -16 284 -261 -21 910 285 hstemhm
          49 1131 hintmask 01110000
          1180 565 rmoveto
          34 vlineto
          357 -241 225 -325 -334 -231 -225 -357 vhcurveto
          -34 vlineto
          -357 233 -224 333 17 17 1 1 17 vhcurveto
          272 -213 217 187 -181 140 rlineto
          128 100 78 161 204 vvcurveto
          hintmask 10110000
          -772 hmoveto
          35 vlineto
          187 65 109 141 129 78 -109 -187 vhcurveto
          -35 vlineto
          -181 -77 -116 -129 -142 -65 116 181 vhcurveto
          endchar
        </CharString>
        <CharString name="Q.ss06">
          348 -21 298 -277 -21 1199 299 hstemhm
          58 1375 hintmask 01110000
          1433 -52 rmoveto
          -231 207 rlineto
          138 133 80 198 235 vvcurveto
          13 vlineto
          434 -273 309 -409 -413 -267 -309 -434 vhcurveto
          -13 vlineto
          -434 269 -308 413 66 62 8 15 58 vhcurveto
          277 -255 rlineto
          hintmask 10110000
          -771 974 rmoveto
          15 vlineto
          257 92 185 214 206 104 -185 -257 vhcurveto
          -15 vlineto
          -254 -102 -190 -206 -214 -94 190 254 vhcurveto
          endchar
        </CharString>
        <CharString name="R">
          219 21 -21 492 303 359 30 callgsubr
          1191 vstem
          996 595 rmoveto
          150 73 100 110 238 vvcurveto
          287 -220 153 -337 vhcurveto
          -587 -42 callgsubr
          492 173 hlineto
          245 -492 rlineto
          400 16 hlineto
          -818 1138 rmoveto
          214 hlineto
          117 67 -66 -114 -117 -62 -62 -122 hvcurveto
          -214 hlineto
          endchar
        </CharString>
        <CharString name="R.alt">
          192 0 32 496 301 325 0 callgsubr
          98 1193 vstem
          1212 261 rmoveto
          74 vlineto
          171 -62 130 -199 54 vhcurveto
          168 61 111 88 182 vvcurveto
          273 -181 162 -341 vhcurveto
          -610 -42 callgsubr
          528 179 hlineto
          140 50 -63 -132 hvcurveto
          -70 vlineto
          -39 7 -178 61 -46 vhcurveto
          383 32 hlineto
          -66 47 -13 150 32 vvcurveto
          -741 568 rmoveto
          325 208 vlineto
          121 57 -74 -101 -94 -70 -56 -114 hvcurveto
          endchar
        </CharString>
        <CharString name="R.smcp">
          51 21 -21 368 290 217 -15 callgsubr
          1054 vstem
          880 470 rmoveto
          123 61 87 79 211 vvcurveto
          229 -199 115 -289 vhcurveto
          -529 -33 callgsubr
          368 117 hlineto
          191 -368 rlineto
          386 14 hlineto
          -694 861 rmoveto
          169 hlineto
          75 54 -31 -73 -82 -44 -31 -86 hvcurveto
          -168 hlineto
          endchar
        </CharString>
        <CharString name="S">
          163 -20 293 -272 -21 1202 294 0 -20 hstemhm
          62 1162 hintmask 01011000
          605 587 rmoveto
          211 -71 34 -45 -79 vvcurveto
          hintmask 10101000
          -60 -46 -59 -124 -161 -82 49 165 vhcurveto
          -375 hlineto
          -363 315 -144 303 328 215 145 269 251 -183 141 -305 98 vhcurveto
          -157 51 -101 47 78 vvcurveto
          64 66 58 124 123 62 -66 -95 vhcurveto
          372 hlineto
          290 -233 165 -315 -326 -244 -155 -257 vhcurveto
          hintmask 01011000
          -273 249 -119 250 -85 vhcurveto
          endchar
        </CharString>
        <CharString name="S.smcp">
          -2 -16 256 685 256 hstem
          53 1001 vstem
          525 448 rmoveto
          -26 callgsubr
          -298 267 -105 257 284 187 125 228 17 callsubr
          -22 callsubr
          255 -222 114 -283 -257 -199 -144 -215 21 callgsubr
          endchar
        </CharString>
        <CharString name="T">
          173 21 -21 1154 0 callgsubr
          35 1231 vstem
          1266 -39 callsubr
          -1231 -302 423 -1154 374 1154 434 hlineto
          endchar
        </CharString>
        <CharString name="T.smcp">
          8 21 -21 875 -21 callsubr
          27 1083 vstem
          1110 -35 callgsubr
          -1083 -290 355 -875 361 875 367 hlineto
          endchar
        </CharString>
        <CharString name="Thorn">
          145 21 -21 268 290 360 290 248 -20 hstem
          110 1119 vstem
          657 1208 rmoveto
          -187 248 -360 -54 callsubr
          360 268 187 hlineto
          370 202 195 275 276 -202 194 -370 hvcurveto
          -650 vmoveto
          -187 360 187 hlineto
          152 60 -85 -97 -95 -60 -83 -152 hvcurveto
          endchar
        </CharString>
        <CharString name="Thorn.smcp">
          -69 21 -21 209 290 241 -15 callgsubr
          957 vstem
          526 1030 rmoveto
          -93 135 -360 -33 callgsubr
          209 93 hlineto
          308 196 177 240 232 -196 172 -308 hvcurveto
          -531 vmoveto
          -93 241 93 hlineto
          98 49 -53 -63 -69 -49 -56 -98 hvcurveto
          endchar
        </CharString>
        <CharString name="U">
          -62 callsubr
          -5 callgsubr
          hintmask 01110000
          1261 -39 callsubr
          -373 -941 hlineto
          hintmask 10110000
          -95 callgsubr
        </CharString>
        <CharString name="U.smcp">
          54 -65 callgsubr
          hstemhm
          80 1021 hintmask 01100000
          1101 -35 callgsubr
          -360 -737 hlineto
          hintmask 10100000
          -94 callgsubr
        </CharString>
        <CharString name="Uacute">
          -62 callsubr
          91 319 -5 callgsubr
          hintmask 01111000
          695 1846 rmoveto
          -91 callsubr
          278 7 callgsubr
          193 -390 rmoveto
          -373 -941 hlineto
          hintmask 10111000
          -95 callgsubr
        </CharString>
        <CharString name="Uacute.smcp">
          -20 callgsubr
          602 1566 rmoveto
          -91 callsubr
          278 7 callgsubr
          126 -401 rmoveto
          -360 -737 hlineto
          hintmask 10110000
          -94 callgsubr
        </CharString>
        <CharString name="Ucircumflex">
          -62 callsubr
          113 14 -5 callgsubr
          hintmask 01111000
          1119 1563 -99 callgsubr
          142 -93 rmoveto
          -373 -941 hlineto
          hintmask 10111000
          -95 callgsubr
        </CharString>
        <CharString name="Ucircumflex.smcp">
          54 -65 callgsubr
          1285 14 hstemhm
          80 1021 hintmask 01110000
          1026 1283 -99 callgsubr
          75 -104 rmoveto
          -360 -737 hlineto
          hintmask 10110000
          -94 callgsubr
        </CharString>
        <CharString name="Udieresis">
          -62 callsubr
          -5 callgsubr
          hintmask 01110000
          940 1815 -105 callsubr
          854 -358 rmoveto
          -373 -941 hlineto
          hintmask 10110000
          -95 callgsubr
        </CharString>
        <CharString name="Udieresis.smcp">
          54 -65 callgsubr
          hstemhm
          80 1021 hintmask 01100000
          847 1535 -105 callsubr
          787 -369 rmoveto
          -360 -737 hlineto
          hintmask 10100000
          -94 callgsubr
        </CharString>
        <CharString name="Ugrave">
          -62 callsubr
          91 319 -5 callgsubr
          hintmask 01111000
          884 1527 -99 callsubr
          666 -71 rmoveto
          -373 -941 hlineto
          hintmask 10111000
          -95 callgsubr
        </CharString>
        <CharString name="Ugrave.smcp">
          -20 callgsubr
          791 1247 -99 callsubr
          599 -82 rmoveto
          -360 -737 hlineto
          hintmask 10110000
          -94 callgsubr
        </CharString>
        <CharString name="V">
          230 -79 callgsubr
          hstem
          -8 1377 vstem
          950 -39 callsubr
          -271 -1025 -272 1025 rlineto
          -415 hlineto
          479 -54 callsubr
          rlineto
          415 hlineto
          483 -73 callsubr
          rlineto
          endchar
        </CharString>
        <CharString name="V.smcp">
          50 -29 callsubr
          -17 1213 vstem
          822 -35 callgsubr
          -234 -832 -232 832 rlineto
          -373 hlineto
          400 -1165 rlineto
          411 hlineto
          402 -47 callgsubr
          rlineto
          endchar
        </CharString>
        <CharString name="W">
          645 -79 callgsubr
          hstem
          16 1734 vstem
          1381 -39 callsubr
          -154 -891 -187 891 rlineto
          -318 hlineto
          -183 -890 -153 890 rlineto
          -370 hlineto
          303 -54 callsubr
          rlineto
          391 hlineto
          171 791 176 -791 rlineto
          391 hlineto
          302 -73 callsubr
          rlineto
          endchar
        </CharString>
        <CharString name="W.smcp">
          388 18 -21 24 -21 hstemhm
          18 1466 hintmask 01100000
          1144 -35 callgsubr
          -107 -639 -131 639 rlineto
          -315 hlineto
          -125 -636 -106 636 rlineto
          -342 hlineto
          251 -1165 rlineto
          204 hlineto
          hintmask 10100000
          82 -3 -1 3 rlineto
          hintmask 01100000
          83 hlineto
          112 544 118 -544 rlineto
          82 hlineto
          -1 -4 85 4 rlineto
          202 hlineto
          249 -47 callgsubr
          rlineto
          endchar
        </CharString>
        <CharString name="X">
          181 -79 callgsubr
          hstem
          -4 1318 vstem
          655 991 rmoveto
          -223 465 rlineto
          -425 hlineto
          399 -722 -410 -734 rlineto
          429 hlineto
          230 474 229 -474 rlineto
          430 hlineto
          -411 734 399 722 rlineto
          -425 hlineto
          endchar
        </CharString>
        <CharString name="X.smcp">
          2 -29 callsubr
          -23 1168 vstem
          543 830 rmoveto
          -149 335 rlineto
          -407 hlineto
          332 -578 -342 -587 rlineto
          410 hlineto
          161 342 173 -342 rlineto
          424 hlineto
          -371 587 331 578 rlineto
          -409 hlineto
          endchar
        </CharString>
        <CharString name="Y">
          165 -79 callgsubr
          hstem
          -7 1309 vstem
          648 850 -47 callsubr
        </CharString>
        <CharString name="Y.smcp">
          -2 -29 callsubr
          -13 1154 vstem
          1141 1165 -45 callgsubr
        </CharString>
        <CharString name="Yacute">
          165 -79 callgsubr
          91 -38 callgsubr
          -7 1309 vstem
          667 1846 rmoveto
          -91 callsubr
          278 7 callgsubr
          -392 -996 -47 callsubr
        </CharString>
        <CharString name="Yacute.smcp">
          -2 -10 callgsubr
          -13 1154 vstem
          936 1566 rmoveto
          -373 hlineto
          -91 callsubr
          483 -82 -45 callgsubr
        </CharString>
        <CharString name="Z">
          123 -8 callgsubr
          57 1152 vstem
          544 301 rmoveto
          662 966 rlineto
          189 -1149 -302 676 vlineto
          -669 -959 rlineto
          -195 1145 301 vlineto
          endchar
        </CharString>
        <CharString name="Z.smcp">
          -47 0 289 586 -21 callsubr
          39 1019 vstem
          1058 -35 callgsubr
          -1019 -290 544 hlineto
          -444 -586 rlineto
          -19 -25 hlineto
          -71 -94 rlineto
          -170 1006 289 -522 vlineto
          525 710 rlineto
          endchar
        </CharString>
        <CharString name="a">
          -80 callgsubr
          hstemhm
          36 1010 hintmask 01111000
          1000 284 rmoveto
          425 vlineto
          -102 callsubr
          hvcurveto
          hintmask 10111000
          -82 callsubr
          vhcurveto
          hintmask 01111000
          -101 callsubr
        </CharString>
        <CharString name="aacute">
          -80 callgsubr
          115 319 hstemhm
          36 1010 hintmask 01111100
          919 6 callgsubr
          rmoveto
          -373 hlineto
          -91 callsubr
          359 -933 -101 callgsubr
        </CharString>
        <CharString name="acircumflex">
          -80 callgsubr
          137 14 hstemhm
          36 1010 hintmask 01111100
          527 1366 -94 callsubr
          634 -955 -101 callgsubr
        </CharString>
        <CharString name="acute">
          -433 -7 callgsubr
          85 572 vstem
          283 6 callgsubr
          rmoveto
          -91 callsubr
          279 7 callgsubr
          endchar
        </CharString>
        <CharString name="acutecomb">
          -1130 -7 callgsubr
          -694 571 vstem
          -496 6 callgsubr
          rmoveto
          -91 callsubr
          278 7 callgsubr
          endchar
        </CharString>
        <CharString name="adieresis">
          -80 callgsubr
          hstemhm
          36 1010 hintmask 01111000
          791 1225 -104 callsubr
          742 -940 rmoveto
          425 vlineto
          -102 callsubr
          hvcurveto
          hintmask 10111000
          -82 callsubr
          vhcurveto
          hintmask 01111000
          -101 callsubr
        </CharString>
        <CharString name="ae">
          600 -20 254 -254 290 -269 -21 438 230 -208 221 151 290 hstemhm
          59 1631 hintmask 00110110
          1690 612 rmoveto
          301 -180 189 -281 vhcurveto
          -132 1 -105 -30 -81 -55 rrcurveto
          56 -78 -108 28 -128 hhcurveto
          -305 -193 -146 -203 hvcurveto
          358 -19 rlineto
          45 46 33 89 79 42 -43 -74 vhcurveto
          hintmask 00101110
          -34 -124 vlineto
          -348 -182 -120 -212 -212 153 -137 281 172 120 59 69 72 hvcurveto
          -81 89 127 -47 162 hhcurveto
          162 166 49 72 89 hvcurveto
          hintmask 01010110
          -84 225 rlineto
          -37 -85 -70 -19 -125 hhcurveto
          -138 -67 59 89 -18 hvcurveto
          625 hlineto
          -350 230 rmoveto
          -276 hlineto
          100 13 41 64 111 hhcurveto
          68 43 -44 -96 hvcurveto
          hintmask 10001110
          -923 -347 rmoveto
          59 60 56 114 vhcurveto
          120 hlineto
          -9 1 -10 1 -9 vhcurveto
          -129 vlineto
          -28 -40 -60 -21 -53 hhcurveto
          -97 -46 31 60 hvcurveto
          endchar
        </CharString>
        <CharString name="agrave">
          -80 callgsubr
          115 319 hstemhm
          36 1010 hintmask 01111100
          735 6 callsubr
          -99 callsubr
          554 -933 -101 callgsubr
        </CharString>
        <CharString name="alpha">
          21 0 -21 22 -21 36 -21 hstemhm
          55 1098 hintmask 00110000
          1128 269 rmoveto
          -2 -3 -3 0 -8 hhcurveto
          -48 -20 35 89 hvcurveto
          691 -315 vlineto
          -24 -124 rlineto
          89 -54 -73 55 -102 hhcurveto
          -276 -147 -232 -325 10 callgsubr
          hintmask 01010000
          -319 147 -225 274 118 80 67 104 56 vhcurveto
          hintmask 10010000
          -115 59 101 -57 139 hhcurveto
          47 33 2 14 44 hvcurveto
          -587 275 rmoveto
          -118 -33 103 2 callgsubr
          55 38 -18 -36 26 vhcurveto
          -445 vlineto
          -29 -26 -40 -14 -55 hhcurveto
          endchar
        </CharString>
        <CharString name="alpha.alt">
          46 -21 290 -269 -21 42 -21 812 290 hstemhm
          55 1060 hintmask 00111000
          1115 hmoveto
          -116 540 109 542 rlineto
          -306 hlineto
          -19 -132 rlineto
          93 -63 -89 59 -127 hhcurveto
          -293 -156 -232 -325 10 callgsubr
          hintmask 01011000
          -319 156 -226 291 132 91 58 91 64 vhcurveto
          hintmask 00111000
          20 -128 rlineto
          hintmask 10011000
          -243 269 rmoveto
          -118 -33 104 2 callgsubr
          123 42 -114 -134 -9 vhcurveto
          -94 vlineto
          -105 12 -45 -96 -125 hhcurveto
          endchar
        </CharString>
        <CharString name="ampersand">
          267 0 -21 42 -21 1187 -39 callgsubr
          49 1308 -657 284 hintmask 01011000
          1357 hmoveto
          -224 254 rlineto
          100 132 37 171 187 vvcurveto
          -298 hlineto
          -91 -22 -81 -36 -69 vhcurveto
          -205 232 82 58 rlineto
          hintmask 10010100
          109 76 84 116 131 vvcurveto
          195 -152 166 -233 -254 -164 -174 -229 -107 45 -98 76 -112 vhcurveto
          -10 -6 rlineto
          -143 -103 -100 -94 -164 vvcurveto
          -241 182 -170 295 150 106 30 63 113 vhcurveto
          hintmask 01100100
          64 -72 rlineto
          -473 1077 rmoveto
          61 37 49 75 65 37 -54 -49 -28 -3 -47 -82 -52 vhcurveto
          -60 -38 rlineto
          -42 57 -27 50 51 vvcurveto
          66 -808 rmoveto
          -71 -72 58 93 64 16 35 27 36 hvcurveto
          6 4 235 -262 rlineto
          -18 -45 -48 -10 -48 hhcurveto
          endchar
        </CharString>
        <CharString name="ampersand.smcp">
          279 -23 286 -263 185 -164 -21 918 263 hstemhm
          75 1228 hintmask 00111000
          1303 hmoveto
          hintmask 01011000
          -195 185 rlineto
          74 79 50 108 164 vvcurveto
          -298 hlineto
          -55 -15 -48 -28 -41 vhcurveto
          -169 161 36 21 rlineto
          114 69 85 93 115 vvcurveto
          214 -156 116 -245 -250 -130 -158 -145 -115 44 -76 80 -86 vhcurveto
          -138 -82 -87 -80 -131 vvcurveto
          hintmask 10011000
          -195 189 -136 301 103 113 16 41 105 vhcurveto
          hintmask 00111000
          35 -34 rlineto
          -355 918 rmoveto
          60 35 -36 -25 -34 -7 -17 -97 -57 hvcurveto
          -25 -15 rlineto
          -40 40 -25 32 31 vvcurveto
          47 33 34 66 vhcurveto
          hintmask 10011000
          -6 -655 rmoveto
          -73 -51 27 52 24 12 26 41 24 hvcurveto
          154 -148 rlineto
          -3 -26 -28 -2 -29 hhcurveto
          endchar
        </CharString>
        <CharString name="aring">
          -80 callgsubr
          119 31 callsubr
          hstemhm
          304 -7 callsubr
          hintmask 01111111
          529 1221 -87 callgsubr
          471 -1236 rmoveto
          425 vlineto
          -102 callsubr
          hvcurveto
          hintmask 10111111
          -82 callsubr
          vhcurveto
          hintmask 01111111
          -101 callsubr
        </CharString>
        <CharString name="asciicircum">
          -204 -4 callgsubr
          32 866 vstem
          898 729 rmoveto
          -299 727 rlineto
          -268 hlineto
          -299 -727 rlineto
          265 hlineto
          168 448 168 -448 rlineto
          endchar
        </CharString>
        <CharString name="asciitilde">
          151 357 488 hstemhm
          89 248 597 253 hintmask 00000000
          hintmask 11100000
          1187 805 rmoveto
          -253 1 rlineto
          -88 -44 -73 -64 -45 -44 26 48 -47 vhcurveto
          87 -84 -84 39 -100 hhcurveto
          -198 -135 -153 -290 hvcurveto
          248 -6 rlineto
          87 47 76 64 49 41 -24 -50 50 vhcurveto
          -91 90 72 -37 102 hhcurveto
          197 138 161 287 hvcurveto
          endchar
        </CharString>
        <CharString name="asterisk">
          -167 1227 -20 30 -20 239 -20 hstemhm
          27 936 hintmask 01110000
          357 948 rmoveto
          -232 -271 178 -119 185 287 185 -297 178 124 -223 264 335 91 rlineto
          hintmask 10110000
          -68 200 -313 -134 29 363 rlineto
          -222 hlineto
          27 -356 rlineto
          hintmask 01110000
          -322 137 -67 -198 rlineto
          endchar
        </CharString>
        <CharString name="at">
          705 -453 208 224 190 -185 202 -181 -21 798 208 231 182 hstemhm
          61 229 204.77 262.83 789.4 211 hintmask 1100111110000000
          964 1403 rmoveto
          -536 -343 -404 -547 -24 hvcurveto
          -608 -22 307 -297 545 hhcurveto
          124 156 29 60 93 hvcurveto
          -38 180 rlineto
          -33 -84 -132 -28 -115 hhcurveto
          -402 -225 223 474 22 hvcurveto
          431 21 246 338 403 hhcurveto
          420 188 -276 -393 -21 hvcurveto
          -219 -6 -84 -164 -108 hhcurveto
          -52 -54 25 87 13 hvcurveto
          51 598 rlineto
          57 -84 -75 54 -160 hhcurveto
          -259 -190 -216 -332 -41 hvcurveto
          hintmask 1001111110000000
          -278 -27 132 -180 193 hhcurveto
          112 87 42 83 64 hvcurveto
          hintmask 1100111110000000
          -83 48 89 -47 106 hhcurveto
          314 132 291 295 10 hvcurveto
          493 22 -286 345 -530 hhcurveto
          hintmask 1010111110000000
          -86 -1217 rmoveto
          -91 -40 88 168 13 hvcurveto
          219 25 61 121 161 hhcurveto
          20 18 -2 -4 17 hvcurveto
          -37 -436 rlineto
          -136 -44 -65 -18 -38 hhcurveto
          endchar
        </CharString>
        <CharString name="atilde">
          -80 callgsubr
          151 -34 callgsubr
          36 1010 -911 0 callsubr
          404 1335 rmoveto
          hintmask 0110100001000000
          -64 callgsubr
          -95 -82 80 -103 hhcurveto
          hintmask 0110010010000000
          -96 callsubr
          596 -1051 rmoveto
          425 vlineto
          hintmask 1011001100000000
          -102 callsubr
          -82 callsubr
          hvcurveto
          hintmask 0110001100000000
          8 -35 10 -31 12 -27 rrcurveto
          357 17 hlineto
          hintmask 0110010010000000
          -29 53 -17 52 162 vvcurveto
          -509 -43 rmoveto
          -53 -44 31 49 hvcurveto
          hintmask 0110001100000000
          67 31 80 114 vhcurveto
          101 -157 hlineto
          hintmask 0110010010000000
          -36 -21 -51 -34 -77 hhcurveto
          endchar
        </CharString>
        <CharString name="b">
          23 -52 callsubr
          814 288 hstemhm
          91 1014 -28 callsubr
          321 vlineto
          15 113 rlineto
          hintmask 10110000
          -82 61 83 -51 114 hhcurveto
          291 129 222 331 hvcurveto
          21 vlineto
          hintmask 01110000
          313 -129 235 -293 vhcurveto
          63 -569 rmoveto
          -164 -13 -102 -138 -73 -46 22 46 -26 vhcurveto
          409 vlineto
          46 26 45 24 72 hhcurveto
          132 21 -119 -141 hvcurveto
          endchar
        </CharString>
        <CharString name="b.ss06">
          52 -52 callsubr
          814 288 hstemhm
          91 1034 -28 callsubr
          311 vlineto
          20 120 rlineto
          hintmask 10110000
          -86 62 84 -54 117 hhcurveto
          291 149 234 9 callgsubr
          hintmask 01110000
          329 -149 223 -293 vhcurveto
          83 -573 rmoveto
          -148 -33 -114 -138 -67 -48 21 39 -30 vhcurveto
          428 vlineto
          40 30 47 19 66 hhcurveto
          135 38 -111 -153 hvcurveto
          endchar
        </CharString>
        <CharString name="backslash">
          -252 -4 callgsubr
          -30 986 vstem
          -30 -39 callsubr
          607 -1581 rlineto
          379 hlineto
          -608 1581 rlineto
          endchar
        </CharString>
        <CharString name="bar">
          -604 -4 callgsubr
          172 188 vstem
          360 -270 rmoveto
          1726 -188 -1726 vlineto
          endchar
        </CharString>
        <CharString name="braceleft">
          23 callgsubr
          192 306 vstem
          498 106 rmoveto
          203 vlineto
          132 -58 115 -130 63 vhcurveto
          130 63 58 115 132 vvcurveto
          203 vlineto
          129 25 105 96 38 vhcurveto
          -67 193 rlineto
          -275 -77 -85 -178 -210 vvcurveto
          -203 vlineto
          -113 -46 -73 -109 vhcurveto
          -249 vlineto
          109 46 -73 -112 hvcurveto
          -203 vlineto
          -210 85 -179 275 -77 vhcurveto
          67 194 rlineto
          -96 38 -25 106 128 vvcurveto
          endchar
        </CharString>
        <CharString name="braceright">
          23 callgsubr
          165 306 vstem
          471 929 rmoveto
          203 vlineto
          210 -85 178 -275 77 vhcurveto
          -67 -193 rlineto
          96 -38 25 -105 -129 vvcurveto
          -203 vlineto
          -132 56 -114 129 -64 vhcurveto
          -129 -64 -56 -114 -132 vvcurveto
          -203 vlineto
          -128 -25 -106 -96 -38 vhcurveto
          67 -194 rlineto
          275 77 85 179 210 vvcurveto
          203 vlineto
          112 46 73 109 vhcurveto
          249 vlineto
          -109 -46 73 113 hvcurveto
          endchar
        </CharString>
        <CharString name="bracketleft">
          1 callsubr
          103 467 vstem
          570 1447 rmoveto
          272 -467 -2079 467 270 -107 1537 vlineto
          endchar
        </CharString>
        <CharString name="bracketright">
          1 callsubr
          15 467 vstem
          15 1719 rmoveto
          -272 108 -1537 -108 -270 467 2079 vlineto
          endchar
        </CharString>
        <CharString name="brokenbar">
          -602 -4 callgsubr
          115 307 vstem
          422 698 rmoveto
          758 -307 -758 vlineto
          -968 vmoveto
          307 795 -307 hlineto
          endchar
        </CharString>
        <CharString name="bullet">
          -363 474 538 hstem
          134 522 vstem
          134 759 rmoveto
          -36 vlineto
          -147 103 -102 159 161 99 102 147 vhcurveto
          36 vlineto
          148 -99 105 -164 -156 -103 -105 -148 vhcurveto
          endchar
        </CharString>
        <CharString name="c">
          -67 -25 callgsubr
          47 970 hintmask 01110000
          681 399 rmoveto
          hintmask 10110000
          -77 callgsubr
          291 3 -193 155 -272 hhcurveto
          -337 -171 -232 -321 hvcurveto
          -17 vlineto
          -321 171 -231 339 265 198 159 260 -3 vhcurveto
          endchar
        </CharString>
        <CharString name="c.ss06">
          -20 -25 callgsubr
          50 1010 hintmask 01110000
          724 399 rmoveto
          hintmask 10110000
          -85 -1 -56 -44 -89 hhcurveto
          -128 -41 109 153 hvcurveto
          17 vlineto
          149 41 114 125 97 51 -68 -88 1 vhcurveto
          336 hlineto
          291 -6 -197 155 -272 hhcurveto
          -337 -198 -232 -321 hvcurveto
          -17 vlineto
          -321 198 -231 339 265 202 159 260 6 vhcurveto
          endchar
        </CharString>
        <CharString name="ccedilla">
          -67 -480 27 callgsubr
          29 -21 813 290 hstemhm
          47 970 hintmask 10111000
          681 399 rmoveto
          -77 callgsubr
          291 3 -193 155 -272 hhcurveto
          -337 -171 -232 -321 hvcurveto
          -17 vlineto
          hintmask 11011000
          -279 129 -211 257 -51 vhcurveto
          -26 -124 -79 callsubr
          hvcurveto
          hintmask 10111000
          -6 callgsubr
          vhcurveto
          7 47 185 50 125 143 -2 207 rlinecurve
          endchar
        </CharString>
        <CharString name="cedilla">
          -551 -483 208 139 149 hstem
          81 445 vstem
          386 13 rmoveto
          -274 hlineto
          -31 -149 -79 callsubr
          -6 callgsubr
          hvcurveto
          endchar
        </CharString>
        <CharString name="cent">
          93 7 -21 24 -21 hstemhm
          516 200 hintmask 01100000
          733 399 rmoveto
          -77 callgsubr
          3 250 -143 150 -213 37 rrcurveto
          225 -200 -222 vlineto
          -277 -39 -140 -217 -291 vvcurveto
          -17 vlineto
          hintmask 10100000
          -290 140 -217 277 -39 vhcurveto
          -231 200 vlineto
          hintmask 01100000
          234 vlineto
          210 38 146 148 -3 224 rrcurveto
          endchar
        </CharString>
        <CharString name="circumflex">
          -88 1239 14 hstem
          86 879 vstem
          965 1253 -99 callgsubr
          endchar
        </CharString>
        <CharString name="colon">
          -499 10 -21 hstem
          116 392 vstem
          312 1134 -63 callsubr
          -775 vmoveto
          -91 callgsubr
          endchar
        </CharString>
        <CharString name="comma">
          -555 -421 684 hstem
          155 280 vstem
          435 29 -50 callgsubr
        </CharString>
        <CharString name="copyright">
          480 -20 125 177 135 623 135 176 125 hstem
          85 122 225 156 372 156 266 124 vstem
          -83 callsubr
          321 491 rmoveto
          -156 hlineto
          -130 -61 -49 -118 -128 -65 103 149 vhcurveto
          120 vlineto
          147 65 104 128 118 62 -51 -128 vhcurveto
          156 hlineto
          209 -130 105 -206 -215 -134 -158 -229 vhcurveto
          -119 vlineto
          -230 134 -157 215 206 129 104 210 vhcurveto
          endchar
        </CharString>
        <CharString name="crossbar">
          -114 653 200 hstem
          137 744 vstem
          881 653 rmoveto
          200 -744 -200 vlineto
          endchar
        </CharString>
        <CharString name="currency">
          258 -20 196 863 195 hstem
          99 186 819 185 vstem
          1289 608 rmoveto
          137 -39 124 -67 101 vhcurveto
          147 150 -142 145 -144 -148 rlineto
          74 -98 -121 43 -130 hhcurveto
          -130 -120 -42 -73 -98 hvcurveto
          -142 145 -141 -144 144 -147 rlineto
          -69 -102 -40 -125 -138 vvcurveto
          -132 37 -121 64 -99 vhcurveto
          -136 -138 141 -144 129 132 rlineto
          -80 100 125 -46 136 hhcurveto
          136 125 47 81 101 hvcurveto
          131 -135 142 145 -139 141 rlineto
          62 99 36 120 130 vvcurveto
          -594 -432 rmoveto
          -228 -182 186 246 246 182 185 228 226 183 -185 -246 -246 -183 -186 -226 hvcurveto
          endchar
        </CharString>
        <CharString name="d">
          21 -52 callsubr
          hstemhm
          47 1015 hintmask 01100000
          702 6 callgsubr
          rmoveto
          -548 vlineto
          71 -60 -78 43 -98 hhcurveto
          -279 -140 -224 -329 10 callgsubr
          hintmask 10100000
          -315 140 -233 277 111 84 54 86 63 vhcurveto
          hintmask 01100000
          18 -120 rlineto
          322 6 callgsubr
          hlineto
          -507 -1268 rmoveto
          -118 -32 112 -23 callsubr
          155 38 110 114 69 49 -26 -57 27 vhcurveto
          -382 vlineto
          -52 -28 -50 -29 -69 hhcurveto
          endchar
        </CharString>
        <CharString name="d.ss06">
          46 -52 callsubr
          hstemhm
          51 1035 hintmask 01100000
          726 6 callgsubr
          rmoveto
          -546 vlineto
          70 -60 -77 42 -98 hhcurveto
          -279 -161 -222 -329 10 callgsubr
          hintmask 10100000
          -315 160 -235 278 113 85 57 89 64 vhcurveto
          hintmask 01100000
          23 -126 rlineto
          312 6 callgsubr
          hlineto
          -506 -1268 rmoveto
          -118 -52 114 -23 callsubr
          154 57 109 115 63 49 -22 -46 32 vhcurveto
          -408 vlineto
          -45 -32 -51 -25 -63 hhcurveto
          endchar
        </CharString>
        <CharString name="degree">
          -308 906 159 252 159 hstem
          125 158 247 159 vstem
          410 10 callsubr
          rmoveto
          -156 -129 -130 -157 -157 129 -126 156 153 126 126 157 157 -126 130 -153 hvcurveto
          -411 vmoveto
          -68 -59 53 71 73 59 55 68 67 53 -55 -73 -72 -53 -52 -67 hvcurveto
          endchar
        </CharString>
        <CharString name="dieresis">
          -92 1224 281 hstem
          96 846 vstem
          785 1505 -105 callsubr
          endchar
        </CharString>
        <CharString name="divide">
          36 554 259 hstem
          58 1051 vstem
          582 1260 rmoveto
          -116 -81 -73 -105 -106 81 -73 116 115 81 73 106 105 -81 73 -115 hvcurveto
          527 -706 rmoveto
          259 -1051 -259 vlineto
          524 -100 rmoveto
          -116 -81 -73 -105 -105 81 -74 116 115 81 74 105 105 -81 73 -115 hvcurveto
          endchar
        </CharString>
        <CharString name="dollar">
          62 4 -21 1487 -20 24 -20 hstemhm
          540 159 -139 159 hintmask 10101000
          648 883 rmoveto
          -122 57 -35 42 80 vvcurveto
          69 35 66 90 78 63 -44 -147 -29 callgsubr
          hintmask 11001000
          260 -159 169 -238 35 vhcurveto
          212 -159 vlineto
          hintmask 10101000
          -208 vlineto
          -254 -22 -174 -157 -230 vvcurveto
          -283 190 -86 268 -116 vhcurveto
          114 -50 43 -34 -108 vvcurveto
          -66 -36 -63 -90 -98 -85 54 165 vhcurveto
          -359 hlineto
          hintmask 10110000
          -335 226 -136 235 -24 vhcurveto
          -204 159 204 vlineto
          244 25 163 146 236 vvcurveto
          hintmask 10101000
          279 -199 96 -259 118 vhcurveto
          endchar
        </CharString>
        <CharString name="dollar.smcp">
          -2 8 -21 22 -21 hstemhm
          497 160 hintmask 01100000
          588 736 rmoveto
          -22 callsubr
          222 -168 115 -229 26 vhcurveto
          220 -160 -216 vlineto
          -231 -18 -173 -139 -200 vvcurveto
          21 callgsubr
          -26 callgsubr
          hintmask 10100000
          -267 214 -112 230 -21 vhcurveto
          -224 160 vlineto
          hintmask 01100000
          225 vlineto
          239 21 152 122 206 vvcurveto
          17 callsubr
          endchar
        </CharString>
        <CharString name="dotlessi">
          31 callgsubr
          hstem
          119 360 vstem
          479 hmoveto
          -51 callgsubr
        </CharString>
        <CharString name="e">
          -80 callsubr
          32 callgsubr
          hintmask 01111000
          1083 574 rmoveto
          331 -192 197 -306 -363 -166 -255 -304 vhcurveto
          -37 vlineto
          -278 206 -248 361 206 155 92 91 68 vhcurveto
          -159 209 rlineto
          hintmask 10111000
          -78 -64 -97 -24 -85 hhcurveto
          -113 -79 55 96 -29 hvcurveto
          657 hlineto
          -349 256 rmoveto
          -29 -312 vlineto
          91 14 40 73 106 hhcurveto
          94 61 -37 -98 -3 hvcurveto
          endchar
        </CharString>
        <CharString name="e.ss07">
          -80 callsubr
          32 callgsubr
          hintmask 01111000
          1083 562 rmoveto
          337 -192 203 -306 -363 -166 -257 -308 vhcurveto
          -37 vlineto
          -286 216 -234 352 175 148 46 50 86 vhcurveto
          hintmask 10111000
          -53 254 rlineto
          -37 -80 -128 -23 -85 hhcurveto
          -160 -78 55 96 -25 hvcurveto
          659 hlineto
          -349 227 rmoveto
          -311 hlineto
          91 15 42 73 105 hhcurveto
          101 48 -41 -97 hvcurveto
          endchar
        </CharString>
        <CharString name="eacute">
          -80 callsubr
          116 319 32 callgsubr
          hintmask 01111100
          921 1537 rmoveto
          -373 hlineto
          -91 callsubr
          440 -644 -96 callgsubr
        </CharString>
        <CharString name="ecircumflex">
          -80 callsubr
          138 14 32 callgsubr
          hintmask 01111100
          529 1367 -94 callsubr
          715 -666 -96 callgsubr
        </CharString>
        <CharString name="edieresis">
          -80 callsubr
          32 callgsubr
          hintmask 01111000
          793 1226 -104 callsubr
          823 -651 rmoveto
          331 -192 197 -306 -363 -166 -255 -304 vhcurveto
          -37 vlineto
          -278 206 -248 361 206 155 92 91 68 vhcurveto
          -159 209 rlineto
          hintmask 10111000
          -78 -64 -97 -24 -85 hhcurveto
          -113 -79 55 96 -29 hvcurveto
          657 hlineto
          -349 256 rmoveto
          -29 -312 vlineto
          91 14 40 73 106 hhcurveto
          94 61 -37 -98 -3 hvcurveto
          endchar
        </CharString>
        <CharString name="egrave">
          -80 callsubr
          116 319 32 callgsubr
          hintmask 01111100
          737 1218 -99 callsubr
          635 -644 -96 callgsubr
        </CharString>
        <CharString name="eight">
          -95 callsubr
        </CharString>
        <CharString name="eight.frac">
          653 -84 callgsubr
          1071 -106 callsubr
        </CharString>
        <CharString name="eight.smcp">
          -49 -65 callgsubr
          908 290 hstemhm
          64 953 hintmask 01110000
          834 600 rmoveto
          98 53 57 83 110 vvcurveto
          224 -182 112 -267 -259 -190 -112 -224 -109 60 -84 98 -52 vhcurveto
          -113 -54 -72 -92 -130 vvcurveto
          -233 205 -108 273 278 197 108 233 129 -70 92 -113 54 vhcurveto
          -294 292 rmoveto
          67 24 -20 -52 -48 -22 -35 -67 -65 -27 35 48 48 29 24 61 hvcurveto
          hintmask 10110000
          2 -619 rmoveto
          -66 -52 36 56 63 52 18 64 69 49 -18 -63 -56 -47 -36 -69 hvcurveto
          endchar
        </CharString>
        <CharString name="eight.sup">
          -11 -84 callgsubr
          407 -106 callsubr
        </CharString>
        <CharString name="eight.tnum">
          -95 callsubr
        </CharString>
        <CharString name="ellipsis">
          488 10 -21 hstem
          126 1386 vstem
          322 359 -63 callsubr
          496 hmoveto
          -91 callgsubr
          498 hmoveto
          -91 callgsubr
          endchar
        </CharString>
        <CharString name="emdash">
          402 29 callsubr
          77 1418 vstem
          1495 29 callgsubr
          -1418 -295 vlineto
          endchar
        </CharString>
        <CharString name="endash">
          124 29 callsubr
          143 1063 vstem
          1206 29 callgsubr
          -1063 -295 vlineto
          endchar
        </CharString>
        <CharString name="equal">
          82 249 287 159 287 hstem
          124 941 vstem
          1065 695 24 callgsubr
          941 -446 24 callgsubr
          endchar
        </CharString>
        <CharString name="eth">
          30 -86 callsubr
          710 265 265 -20 hstemhm
          56 1076 hintmask 01111000
          873 1307 rmoveto
          116 70 -76 122 -157 -95 -119 84 -141 59 -158 31 rlinecurve
          -114 -266 77 -20 78 -30 71 -42 rlinecurve
          -120 -72 78 -122 169 102 66 -61 55 -75 34 -93 rlinecurve
          37 -64 -75 19 -83 hhcurveto
          -305 -149 -195 -292 -272 208 -216 314 318 236 256 374 hvcurveto
          52 vlineto
          264 -96 220 -163 161 vhcurveto
          hintmask 10111000
          -291 -1037 rmoveto
          -104 -63 74 124 137 51 85 122 88 61 -23 -30 35 hvcurveto
          -79 vlineto
          -165 -58 -123 -132 vhcurveto
          endchar
        </CharString>
        <CharString name="exclam">
          -561 1 -21 10 callsubr
          -20 hstem
          94 396 vstem
          440 476 rmoveto
          48 980 rlineto
          -383 hlineto
          47 -980 rlineto
          141 -122 rmoveto
          -117 -82 -81 -3 callsubr
          81 -116 hvcurveto
          endchar
        </CharString>
        <CharString name="exclamdown">
          -498 -375 1477 hstem
          121 396 vstem
          319 729 -33 callsubr
          -148 -124 rmoveto
          -47 -980 rlineto
          383 hlineto
          -48 980 rlineto
          endchar
        </CharString>
        <CharString name="f">
          -384 -31 callsubr
          hstem
          5 744 vstem
          520 1163 rmoveto
          69 53 37 95 37 21 -3 -6 23 vhcurveto
          -92 callgsubr
          208 259 -208 vlineto
          endchar
        </CharString>
        <CharString name="f_f">
          362 -31 callsubr
          187 288 hstem
          5 1490 vstem
          668 1269 rmoveto
          37 21 -3 -6 23 hvcurveto
          -92 callgsubr
          208 259 -208 81 vlineto
          69 53 37 95 vhcurveto
          598 -106 rmoveto
          69 53 37 95 37 21 -3 -6 23 vhcurveto
          -92 callgsubr
          208 259 -208 vlineto
          endchar
        </CharString>
        <CharString name="f_f_i">
          882 -31 callsubr
          164 311 hstem
          5 1903 vstem
          1214 1091 rmoveto
          99 73 56 116 135 76 -22 -20 82 vhcurveto
          49 296 rlineto
          34 -126 -112 23 -125 hhcurveto
          -336 -192 -163 -303 hvcurveto
          -9 -334 81 vlineto
          69 53 37 95 37 21 -3 -6 23 vhcurveto
          -92 callgsubr
          334 -823 360 823 211 259 -211 vlineto
          334 hmoveto
          -1082 360 1082 vlineto
          endchar
        </CharString>
        <CharString name="f_f_l">
          882 -31 callsubr
          187 288 hstem
          5 1903 vstem
          1352 -13 callsubr
          -334 81 vlineto
          69 53 37 95 37 21 -3 -6 23 vhcurveto
          -92 callgsubr
          334 -823 360 823 208 259 -208 55 vlineto
          86 71 46 125 47 46 -2 -4 45 vhcurveto
          -1263 360 1548 vlineto
          3 -139 -278 6 -139 hhcurveto
          endchar
        </CharString>
        <CharString name="f_l">
          188 -31 callsubr
          187 288 hstem
          5 1209 vstem
          658 -13 callsubr
          -49 callgsubr
          360 823 208 259 -208 55 vlineto
          86 71 46 125 47 46 -2 -4 45 vhcurveto
          -1263 360 1548 vlineto
          3 -139 -278 6 -139 hhcurveto
          endchar
        </CharString>
        <CharString name="fi">
          198 -31 callsubr
          164 311 hstem
          15 1209 vstem
          530 1091 rmoveto
          99 72 56 117 134 76 -22 -20 83 vhcurveto
          48 296 rlineto
          34 -125 -112 23 -126 hhcurveto
          -336 -191 -163 -303 hvcurveto
          -9 -49 callgsubr
          360 823 211 259 -211 vlineto
          334 hmoveto
          -1082 360 1082 vlineto
          endchar
        </CharString>
        <CharString name="five">
          62 -86 callsubr
          729 250 211 286 hstemhm
          70 1032 hintmask 01111000
          95 707 rmoveto
          285 -70 rlineto
          28 19 55 44 94 hhcurveto
          142 54 -76 -132 hvcurveto
          hintmask 10111000
          -118 -26 -113 -129 -92 -61 64 89 -4 vhcurveto
          -362 hlineto
          -266 -7 265 -177 263 hhcurveto
          351 160 248 243 316 -161 172 -291 -91 -85 -35 -16 -29 hvcurveto
          32 262 rlineto
          575 286 -866 hlineto
          endchar
        </CharString>
        <CharString name="five.frac">
          653 -69 callsubr
          hintmask 01110000
          71 1042 -100 callgsubr
        </CharString>
        <CharString name="five.smcp">
          -49 -65 callgsubr
          551 233 121 276 hstemhm
          44 955 hintmask 01111000
          66 556 rmoveto
          285 -70 rlineto
          10 11 45 39 94 hhcurveto
          99 40 -48 -86 hvcurveto
          hintmask 10111000
          -60 -9 -68 -106 -74 -47 11 56 5 vhcurveto
          -365 hlineto
          -213 -5 242 -143 244 hhcurveto
          324 150 217 202 237 -132 128 -267 -79 -88 -30 -6 -20 hvcurveto
          28 157 rlineto
          486 276 -775 hlineto
          endchar
        </CharString>
        <CharString name="five.sup">
          -11 -69 callsubr
          hintmask 11110000
          71 378 -100 callgsubr
        </CharString>
        <CharString name="five.tnum">
          1 endchar
        </CharString>
        <CharString name="four">
          62 21 -21 302 290 864 -20 hstem
          60 1071 vstem
          1131 592 rmoveto
          -140 864 -359 -6 hlineto
          -572 -915 24 -233 rlineto
          548 -302 359 302 140 hlineto
          -733 290 rmoveto
          212 339 22 38 rlineto
          -377 vlineto
          endchar
        </CharString>
        <CharString name="four.frac">
          818 190 -24 callsubr
          1008 -93 callgsubr
        </CharString>
        <CharString name="four.smcp">
          -49 21 -21 224 293 hstem
          56 967 vstem
          1023 517 rmoveto
          -113 648 -359 -10 hlineto
          -495 -689 27 -242 rlineto
          468 -224 359 224 113 hlineto
          -635 293 rmoveto
          146 190 17 25 rlineto
          -215 vlineto
          endchar
        </CharString>
        <CharString name="four.sup">
          21 -21 154 190 -24 callsubr
          344 -93 callgsubr
        </CharString>
        <CharString name="four.tnum">
          38 endchar
        </CharString>
        <CharString name="fraction">
          -232 109 1220 hstem
          8 876 vstem
          173 109 rmoveto
          711 1138 -165 82 -711 -1138 rlineto
          endchar
        </CharString>
        <CharString name="g">
          53 -32 callsubr
          50 1041 vstem
          766 1082 rmoveto
          -12 -92 rlineto
          70 -57 -81 42 -120 hhcurveto
          -277 -169 -224 -31 callgsubr
          168 -233 276 102 76 40 67 59 vhcurveto
          -34 vlineto
          -127 -73 -76 -142 -115 -79 53 48 -49 vhcurveto
          -147 -223 rlineto
          -94 88 162 -60 151 hhcurveto
          338 226 170 303 hvcurveto
          1035 -11 callsubr
          -59 112 -23 callsubr
          155 64 110 115 67 47 -19 -41 30 vhcurveto
          -426 vlineto
          -39 -30 -49 -21 -67 hhcurveto
          endchar
        </CharString>
        <CharString name="g.alt">
          -47 -438 263 161 264 -234 -21 338 264 331 154 hstemhm
          -28 1089 hintmask 11011100
          696 250 rmoveto
          -195 hlineto
          -72 -55 7 60 11 3 9 5 8 hvcurveto
          -8 44 46 -4 50 hhcurveto
          304 193 163 211 hvcurveto
          22 vlineto
          76 -22 67 -41 56 vhcurveto
          105 hlineto
          -2 154 rlineto
          -357 hlineto
          13 -55 -61 7 -66 hhcurveto
          -303 -195 -148 -225 hvcurveto
          -22 vlineto
          -141 87 -119 148 -64 vhcurveto
          -63 -40 -52 -56 -82 vvcurveto
          -53 15 -42 25 -32 vhcurveto
          -112 -44 -98 -79 -117 vvcurveto
          -147 183 -129 339 361 206 204 176 186 -135 122 -230 vhcurveto
          -318 479 rmoveto
          65 50 44 92 93 50 -44 -65 vhcurveto
          -22 vlineto
          -62 -48 -48 -93 -95 -49 48 62 vhcurveto
          116 -882 rmoveto
          -130 -62 49 56 hvcurveto
          hintmask 10111100
          28 15 23 20 14 vhcurveto
          hintmask 11011100
          -6 31 33 -3 34 hhcurveto
          184 hlineto
          67 19 -47 -23 -45 -49 -46 -162 hvcurveto
          endchar
        </CharString>
        <CharString name="g.ss06">
          48 -32 callsubr
          51 1035 vstem
          770 -14 callsubr
          -163 -220 -31 callgsubr
          162 13 callgsubr
          -1 vlineto
          -163 -82 -74 -172 -89 -40 12 15 -72 vhcurveto
          -34 -255 rlineto
          -39 92 108 -9 89 hhcurveto
          344 216 182 325 hvcurveto
          1001 -11 callsubr
          -52 116 -23 callsubr
          153 57 108 115 67 47 -19 -40 30 vhcurveto
          -425 vlineto
          -40 -30 -49 -22 -67 hhcurveto
          endchar
        </CharString>
        <CharString name="g.ss07">
          53 -32 callsubr
          46 1015 vstem
          745 -14 callsubr
          -143 -220 -31 callgsubr
          142 13 callgsubr
          -163 -2 -82 -75 -170 hhcurveto
          -93 -45 14 19 -75 hvcurveto
          -34 -255 rlineto
          -43 95 113 -11 93 hhcurveto
          344 216 184 329 hvcurveto
          995 -11 callsubr
          -32 116 -23 callsubr
          153 37 108 115 73 45 -22 -47 26 vhcurveto
          -406 vlineto
          -46 -27 -46 -25 -73 hhcurveto
          endchar
        </CharString>
        <CharString name="germandbls">
          217 -20 290 -270 25 -24 -21 1294 289 hstemhm
          134 1159 hintmask 00000000
          hintmask 01011000
          493 hmoveto
          1088 vlineto
          151 53 35 75 78 56 -54 -62 vhcurveto
          -157 -86 10 -195 -247 266 -41 -146 vvcurveto
          hintmask 10011000
          -76 -60 -36 -68 -99 -68 16 19 -40 vhcurveto
          hintmask 01011000
          -62 -280 rlineto
          hintmask 00111000
          -31 56 109 -14 99 hhcurveto
          329 162 160 243 hvcurveto
          246 -266 112 99 175 90 -27 183 vvcurveto
          253 -210 139 -241 -334 -198 -159 -308 vhcurveto
          hintmask 01011000
          -1096 vlineto
          endchar
        </CharString>
        <CharString name="grave">
          -426 -7 callgsubr
          56 574 vstem
          630 6 callsubr
          -99 callsubr
          endchar
        </CharString>
        <CharString name="gravecomb">
          -1130 -7 callgsubr
          -917 574 vstem
          -343 6 callsubr
          -99 callsubr
          endchar
        </CharString>
        <CharString name="greater">
          -83 95 1008 hstem
          107 883 vstem
          107 1103 rmoveto
          -337 vlineto
          524 -165 -524 -169 rlineto
          -337 vlineto
          883 354 rlineto
          300 vlineto
          endchar
        </CharString>
        <CharString name="guillemotleft">
          -63 106 799 hstem
          60 909 vstem
          544 905 -66 callgsubr
          653 399 -66 callgsubr
          endchar
        </CharString>
        <CharString name="guillemotright">
          -63 104 799 hstem
          74 906 vstem
          558 494 rmoveto
          19 vlineto
          -269 390 rlineto
          -41 callgsubr
          422 799 rmoveto
          -41 callgsubr
          269 390 rlineto
          19 vlineto
          endchar
        </CharString>
        <CharString name="guilsinglleft">
          -474 106 799 hstem
          108 484 vstem
          592 905 -66 callgsubr
          endchar
        </CharString>
        <CharString name="guilsinglright">
          -509 104 799 hstem
          75 484 vstem
          290 903 rmoveto
          -41 callgsubr
          269 390 rlineto
          19 vlineto
          endchar
        </CharString>
        <CharString name="h">
          30 -29 callsubr
          80 994 vstem
          709 16 callsubr
          -111 -93 -50 -85 -67 hvcurveto
          569 -358 -1536 358 765 vlineto
          31 25 40 18 66 hhcurveto
          90 55 -28 -123 hvcurveto
          -663 360 661 vlineto
          323 -151 118 -214 vhcurveto
          endchar
        </CharString>
        <CharString name="hyphen">
          -153 -37 callgsubr
        </CharString>
        <CharString name="i">
          -558 -29 callsubr
          85 397 vstem
          284 1540 rmoveto
          -117 -82 -74 -106 -107 82 -12 callsubr
          182 -1540 rmoveto
          -51 callgsubr
        </CharString>
        <CharString name="iacute">
          12 callsubr
          119 572 vstem
          318 1509 rmoveto
          -91 callsubr
          278 7 callgsubr
          -212 -1509 rmoveto
          -51 callgsubr
        </CharString>
        <CharString name="icircumflex">
          31 callgsubr
          1212 14 -14 19 hstemhm
          -137 879 hintmask 11010000
          742 1226 rmoveto
          -340 282 rlineto
          -18 callsubr
          hintmask 10110000
          -334 -277 rlineto
          hintmask 11010000
          -19 275 vlineto
          161 127 -83 callgsubr
          hlineto
          -263 -1212 rmoveto
          -51 callgsubr
        </CharString>
        <CharString name="idieresis">
          31 callgsubr
          1477 -20 hstem
          -126 846 vstem
          563 1478 -105 callsubr
          449 -1477 rmoveto
          -51 callgsubr
        </CharString>
        <CharString name="igrave">
          12 callsubr
          -67 574 vstem
          507 1190 -99 callsubr
          261 -1190 rmoveto
          -51 callgsubr
        </CharString>
        <CharString name="j">
          -567 -437 292 -292 1977 hstemhm
          -126 613 hintmask 01100000
          289 1540 rmoveto
          -117 -81 -74 -106 -107 81 -12 callsubr
          187 -458 rmoveto
          -360 -1089 hlineto
          hintmask 10100000
          -90 -51 -48 -94 -36 -26 5 4 -35 vhcurveto
          -284 vlineto
          -14 62 43 -3 62 hhcurveto
          266 169 152 278 hvcurveto
          endchar
        </CharString>
        <CharString name="k">
          2 -29 callsubr
          91 1077 vstem
          759 hmoveto
          409 hlineto
          -393 634 372 448 rlineto
          -429 hlineto
          -244 -307 -24 -32 rlineto
          794 -359 -1537 359 298 vlineto
          91 87 rlineto
          endchar
        </CharString>
        <CharString name="k.alt">
          0 -29 callsubr
          89 1051 vstem
          731 hmoveto
          409 hlineto
          -348 589 321 493 rlineto
          -412 hlineto
          -208 -389 rlineto
          -45 843 -359 -1536 359 410 58 hlineto
          endchar
        </CharString>
        <CharString name="k.alt2">
          -13 -29 callsubr
          89 1060 vstem
          1149 hmoveto
          -394 571 351 511 rlineto
          -405 hlineto
          -253 -389 rlineto
          867 -359 -1560 359 436 vlineto
          282 -436 rlineto
          endchar
        </CharString>
        <CharString name="l">
          -558 -29 callsubr
          106 360 vstem
          466 hmoveto
          6 callgsubr
          -360 -1536 vlineto
          endchar
        </CharString>
        <CharString name="less">
          -85 96 1009 hstem
          42 896 vstem
          938 1105 rmoveto
          -896 -355 rlineto
          -299 vlineto
          896 -355 rlineto
          337 vlineto
          -538 167 538 170 rlineto
          endchar
        </CharString>
        <CharString name="logicalnot">
          -8 634 171 hstem
          760 200 vstem
          125 805 rmoveto
          -171 635 -260 200 431 vlineto
          endchar
        </CharString>
        <CharString name="longs">
          -587 -29 callsubr
          85 611 vstem
          85 hmoveto
          359 1163 hlineto
          69 45 35 80 46 23 -4 -6 34 vhcurveto
          24 279 rlineto
          12 -58 -55 9 -58 hhcurveto
          -278 -162 -138 -256 hvcurveto
          endchar
        </CharString>
        <CharString name="longst">
          235 1 -21 41 -18 callgsubr
          185 290 hstemhm
          5 1349 hintmask 01111000
          1270 -16 callgsubr
          160 1 206 vlineto
          39 -135 -186 70 -241 hhcurveto
          -278 -162 -138 -256 hvcurveto
          -81 -49 callgsubr
          359 1163 vlineto
          69 45 35 80 85 55 -15 -7 19 vhcurveto
          -163 20 callsubr
          hintmask 10111000
          -17 callsubr
          hintmask 01111000
          -1 callsubr
        </CharString>
        <CharString name="m">
          630 21 -21 hstemhm
          91 342.5 -342.5 1577 hintmask 10100000
          1334 16 callsubr
          -141 -105 -60 -103 -68 hvcurveto
          114 -50 -97 49 -125 hhcurveto
          hintmask 11000000
          -134 -104 -56 -94 -70 hvcurveto
          -13 130 rlineto
          -336 -1082 359 736 hlineto
          49 31 47 29 56 hhcurveto
          75 41 -15 -130 hvcurveto
          -669 359 722 vlineto
          17 vlineto
          47 29 45 28 61 hhcurveto
          72 42 -21 -122 hvcurveto
          -671 360 672 vlineto
          hintmask 10100000
          326 -141 104 -193 vhcurveto
          endchar
        </CharString>
        <CharString name="macron">
          -47 1282 180 hstem
          187 696 vstem
          883 1282 rmoveto
          180 -696 -180 vlineto
          endchar
        </CharString>
        <CharString name="minus">
          -17 29 callsubr
          130 886 vstem
          1016 29 callgsubr
          -886 -295 vlineto
          endchar
        </CharString>
        <CharString name="multiply">
          -49 190 993 hstem
          48 982 vstem
          1030 984 rmoveto
          -203 199 -288 -294 -288 294 -203 -199 292 -297 -292 -298 203 -199 288 294 288 -294 203 199 -292 298 rlineto
          endchar
        </CharString>
        <CharString name="n">
          29 21 -21 hstemhm
          81 342 -342 993 hintmask 10100000
          736 16 callsubr
          hintmask 11000000
          -58 callgsubr
          hintmask 10100000
          13 callsubr
        </CharString>
        <CharString name="nine">
          62 -26 301 183 267 463 289 0 -20 hstemhm
          77 1030 hintmask 11011000
          592 1477 rmoveto
          -296 -219 -239 -286 -314 171 -180 261 88 82 34 52 64 hvcurveto
          -218 -34 -171 -51 -215 hhcurveto
          -21 -301 28 hlineto
          401 376 211 561 hvcurveto
          134 vlineto
          410 -245 187 -270 vhcurveto
          17 -752 rmoveto
          -115 -58 91 133 hvcurveto
          hintmask 11101000
          106 56 133 97 102 58 -70 -166 vhcurveto
          -153 vlineto
          hintmask 11011000
          -40 -23 -44 -34 -73 hhcurveto
          endchar
        </CharString>
        <CharString name="nine.frac">
          648 -74 callgsubr
          1465 -103 callsubr
        </CharString>
        <CharString name="nine.smcp">
          -49 -24 284 633 289 hstemhm
          63 952 hintmask 00000000
          hintmask 11100000
          541 1182 rmoveto
          -266 -212 -198 -233 -286 165 -100 227 66 70 25 41 58 hvcurveto
          -191 -34 -144 20 -154 hhcurveto
          -20 -284 27 hlineto
          315 376 61 575 hvcurveto
          89 vlineto
          383 -246 98 -228 vhcurveto
          -118 -440 rmoveto
          84 45 67 73 84 32 -23 -91 vhcurveto
          -128 vlineto
          -12 -17 -30 -13 -49 hhcurveto
          -90 -48 26 90 hvcurveto
          endchar
        </CharString>
        <CharString name="nine.sup">
          -16 -74 callgsubr
          801 -103 callsubr
        </CharString>
        <CharString name="nine.tnum">
          43 endchar
        </CharString>
        <CharString name="ntilde">
          29 21 -21 1253 -34 callgsubr
          81 342 -236 -56 callsubr
          hintmask 10100100
          456 1335 rmoveto
          hintmask 11000010
          -64 callgsubr
          -95 -82 80 -103 hhcurveto
          hintmask 10100100
          -96 callsubr
          280 -233 rmoveto
          hintmask 10011000
          -58 callgsubr
          hintmask 10100100
          13 callsubr
        </CharString>
        <CharString name="numbersign">
          47 21 -21 410 194 242 194 416 -20 hstem
          15 1116 vstem
          1131 846 rmoveto
          194 -236 vlineto
          67 416 rlineto
          -206 hlineto
          -67 -416 rlineto
          -147 hlineto
          66 416 rlineto
          -18 callsubr
          -67 -416 rlineto
          -246 -194 215 hlineto
          -38 -242 rlineto
          -252 -194 221 hlineto
          -66 -410 rlineto
          207 hlineto
          65 410 rlineto
          147 hlineto
          -66 -410 rlineto
          206 hlineto
          66 410 rlineto
          260 194 -229 hlineto
          38 242 rlineto
          -244 -242 rmoveto
          -147 hlineto
          38 242 rlineto
          147 hlineto
          endchar
        </CharString>
        <CharString name="o">
          17 -25 callgsubr
          47 1052 hintmask 01110000
          47 551 -98 callsubr
          hintmask 10110000
          -98 callgsubr
        </CharString>
        <CharString name="o.ss06">
          45 -25 callgsubr
          38 1099 hintmask 01110000
          38 551 rmoveto
          -21 vlineto
          -317 205 -233 346 343 205 233 317 vhcurveto
          21 vlineto
          317 -205 234 -345 -344 -205 -234 -317 vhcurveto
          hintmask 10110000
          359 -21 rmoveto
          21 vlineto
          143 56 118 134 136 55 -118 -143 vhcurveto
          -21 vlineto
          -149 -56 -111 -133 -137 -55 111 149 vhcurveto
          endchar
        </CharString>
        <CharString name="oacute">
          -28 callgsubr
          595 6 callgsubr
          rmoveto
          -91 callsubr
          278 7 callgsubr
          -921 -985 -98 callsubr
          hintmask 10111000
          -98 callgsubr
        </CharString>
        <CharString name="ocircumflex">
          17 -86 callsubr
          832 290 137 14 -3 callgsubr
          hintmask 01111000
          1019 1253 -99 callgsubr
          -972 -688 -98 callsubr
          hintmask 10111000
          -98 callgsubr
        </CharString>
        <CharString name="odieresis">
          17 -25 callgsubr
          47 1052 hintmask 01110000
          840 1505 -105 callsubr
          -260 -953 -98 callsubr
          hintmask 10110000
          -98 callgsubr
        </CharString>
        <CharString name="oe">
          714 -20 290 148 227 167 -21 callsubr
          72 1690 vstem
          1762 611 rmoveto
          306 -181 185 -293 vhcurveto
          -144 1 -111 -43 -81 -73 rrcurveto
          73 -87 -118 42 -146 hhcurveto
          -343 -186 -234 -317 10 callgsubr
          -317 186 -233 345 149 119 44 76 88 vhcurveto
          -75 88 120 -45 144 hhcurveto
          181 161 54 64 89 hvcurveto
          -81 228 rlineto
          -32 -94 -60 -24 -143 hhcurveto
          -117 -69 65 83 -26 hvcurveto
          610 hlineto
          -990 112 rmoveto
          -149 -36 -111 -133 -137 -35 111 149 vhcurveto
          21 vlineto
          143 36 118 134 136 35 -118 -143 vhcurveto
          640 94 rmoveto
          -267 hlineto
          96 12 35 71 96 hhcurveto
          87 37 -44 -97 hvcurveto
          endchar
        </CharString>
        <CharString name="ograve">
          -28 callgsubr
          784 6 callsubr
          -99 callsubr
          -448 -666 -98 callsubr
          hintmask 10111000
          -98 callgsubr
        </CharString>
        <CharString name="one">
          62 21 -21 1227 -20 hstem
          166 685 vstem
          851 hmoveto
          1454 -31 vlineto
          -654 -227 rlineto
          -280 vlineto
          327 86 rlineto
          -1033 vlineto
          endchar
        </CharString>
        <CharString name="one.smcp">
          -49 -29 callsubr
          148 643 vstem
          791 hmoveto
          1158 -28 vlineto
          -615 -192 rlineto
          -270 vlineto
          286 47 rlineto
          -743 vlineto
          endchar
        </CharString>
        <CharString name="one.sup">
          21 -21 24 callsubr
          hmoveto
          -58 callsubr
        </CharString>
        <CharString name="one.tnum">
          114 endchar
        </CharString>
        <CharString name="ordfeminine">
          -228 691 144 198 117 178 148 hstemhm
          132 175 -159 173 254 175 hintmask 11101100
          776 705 rmoveto
          -19 58 -7 58 65 vvcurveto
          314 vlineto
          183 -117 93 -174 -188 -123 -98 -135 vhcurveto
          173 -14 rlineto
          64 52 35 86 78 38 -45 -82 vhcurveto
          -51 -102 vlineto
          hintmask 11110100
          -230 -111 -84 -147 -138 89 -90 160 94 66 38 44 41 hvcurveto
          4 -24 6 -23 7 -21 rrcurveto
          -292 218 rmoveto
          58 51 52 116 vhcurveto
          101 -136 hlineto
          -33 -36 -62 -29 -53 hhcurveto
          -80 -37 33 55 hvcurveto
          endchar
        </CharString>
        <CharString name="ordmasculine">
          -191 690 146 492 148 hstem
          117 175 343 175 vstem
          117 1121 rmoveto
          -77 vlineto
          -207 134 -147 214 213 132 147 207 vhcurveto
          77 vlineto
          207 -132 148 -215 -212 -134 -148 -207 vhcurveto
          175 -77 rmoveto
          77 vlineto
          117 56 90 115 116 56 -90 -117 vhcurveto
          -77 vlineto
          -119 -56 -89 -114 -117 -56 89 119 vhcurveto
          endchar
        </CharString>
        <CharString name="oslash">
          19 -86 callsubr
          832 290 120 -20 -3 callgsubr
          hintmask 01111000
          895 1008 rmoveto
          103 214 rlineto
          -184 hlineto
          -69 -143 rlineto
          15 -52 -58 8 -63 hhcurveto
          -343 -182 -234 -317 10 callgsubr
          -199 71 -165 138 -96 vhcurveto
          -105 -218 rlineto
          184 hlineto
          72 149 rlineto
          -14 51 55 -7 61 hhcurveto
          344 181 233 317 hvcurveto
          21 vlineto
          196 -69 165 -135 96 vhcurveto
          -490 -478 rmoveto
          21 vlineto
          143 34 118 133 15 14 -1 -3 13 vhcurveto
          -197 -406 rlineto
          -9 37 -3 44 47 vvcurveto
          336 hmoveto
          hintmask 10111000
          -149 -34 -111 -133 -13 -11 1 2 -11 vhcurveto
          192 396 rlineto
          7 -35 3 -40 -43 vvcurveto
          endchar
        </CharString>
        <CharString name="otilde">
          17 -86 callsubr
          832 290 151 -34 callgsubr
          47 1052 -915 0 callsubr
          967 1534 rmoveto
          -41 callsubr
          hintmask 0110100100000000
          -96 callsubr
          hintmask 0111001000000000
          101 58 -82 122 hhcurveto
          hintmask 0110010010000000
          -76 callgsubr
          hintmask 0110011000000000
          -920 -983 -98 callsubr
          hintmask 1010011000000000
          -98 callgsubr
        </CharString>
        <CharString name="p">
          23 1 -21 834 288 hstemhm
          91 341.5 -341.5 1014 hintmask 11010000
          684 16 callsubr
          hintmask 11100000
          -108 -79 -44 -74 -59 hvcurveto
          -11 98 rlineto
          -336 -1498 359 505 hlineto
          -68 58 77 -41 101 hhcurveto
          274 145 239 9 callgsubr
          hintmask 11010000
          19 callsubr
          63 22 callsubr
          -117 -75 -48 28 50 -26 vhcurveto
          393 vlineto
          50 25 47 23 75 hhcurveto
          113 37 -103 -156 hvcurveto
          endchar
        </CharString>
        <CharString name="p.ss06">
          46 1 -21 hstemhm
          91 343.5 -343.5 1034 hintmask 10100000
          684 16 callsubr
          hintmask 11000000
          -107 -79 -44 -74 -59 hvcurveto
          -9 98 rlineto
          -339 -1498 359 504 hlineto
          -67 58 77 -41 101 hhcurveto
          274 165 237 9 callgsubr
          hintmask 10100000
          329 -166 220 -275 vhcurveto
          83 -570 rmoveto
          -148 -51 -114 -117 -70 -49 23 42 -30 vhcurveto
          416 vlineto
          43 30 48 20 69 hhcurveto
          113 57 -108 -153 hvcurveto
          endchar
        </CharString>
        <CharString name="paragraph">
          -130 -79 callgsubr
          hstem
          660 233 vstem
          660 hmoveto
          233 -73 callsubr
          -316 hlineto
          -318 -174 -200 -268 -270 174 -198 318 hvcurveto
          83 hlineto
          endchar
        </CharString>
        <CharString name="parenleft">
          -405 -444 2038 hstem
          119 279 vstem
          119 592 rmoveto
          -34 vlineto
          -541 243 -362 256 -99 vhcurveto
          67 180 rlineto
          -149 105 -138 247 468 vvcurveto
          38 vlineto
          469 138 247 149 107 vhcurveto
          -67 177 rlineto
          -256 -99 -243 -362 -541 vvcurveto
          endchar
        </CharString>
        <CharString name="parenright">
          -408 -444 2038 hstem
          327 307 vstem
          634 558 rmoveto
          34 vlineto
          506 -256 397 -270 99 vhcurveto
          -68 -180 rlineto
          152 -108 135 -243 -469 vvcurveto
          -38 vlineto
          -468 -140 -244 -147 -108 vhcurveto
          68 -180 rlineto
          270 99 256 397 506 vvcurveto
          endchar
        </CharString>
        <CharString name="percent">
          394 -20 199 279 199 143 199 279 199 hstem
          88 228 200 227 35 227 202 227 vstem
          88 1176 rmoveto
          -77 vlineto
          -163 109 -136 220 222 104 136 163 vhcurveto
          77 vlineto
          165 -104 136 -224 -218 -109 -136 -165 vhcurveto
          397 -1067 rmoveto
          711 1138 -164 82 -711 -1138 rlineto
          -5 908 rmoveto
          77 vlineto
          55 33 47 66 69 32 -47 -55 vhcurveto
          -77 vlineto
          -52 -31 -48 -68 -68 -33 47 53 vhcurveto
          462 -742 rmoveto
          -77 vlineto
          -164 110 -136 220 223 103 136 164 vhcurveto
          77 vlineto
          164 -103 136 -225 -218 -110 -136 -164 vhcurveto
          227 -77 rmoveto
          77 vlineto
          54 34 47 67 68 33 -47 -54 vhcurveto
          -77 vlineto
          -53 -9 -48 -90 -54 -49 48 53 vhcurveto
          endchar
        </CharString>
        <CharString name="period">
          -500 10 -21 hstem
          113 392 vstem
          309 359 -63 callsubr
          endchar
        </CharString>
        <CharString name="periodcentered">
          -454 486 370 hstem
          138 392 vstem
          334 856 rmoveto
          -115 -81 -80 -105 -105 81 -80 115 115 81 80 105 105 -81 80 -115 hvcurveto
          endchar
        </CharString>
        <CharString name="plus">
          -46 517 320 hstem
          374 332 vstem
          1038 837 rmoveto
          -332 369 -332 -369 -334 -320 334 -371 332 371 332 hlineto
          endchar
        </CharString>
        <CharString name="plusminus">
          -26 1 295 408 305 hstem
          382 311 vstem
          693 1009 rmoveto
          292 -311 -292 -300 -305 300 -329 311 329 305 305 vlineto
          -903 -1008 rmoveto
          886 295 -886 hlineto
          endchar
        </CharString>
        <CharString name="q">
          18 1 -21 832 -21 callsubr
          47 1015 vstem
          753 1082 rmoveto
          -26 -120 rlineto
          87 -61 -84 53 -117 hhcurveto
          -274 -144 -220 -31 callgsubr
          143 -237 273 103 -27 callsubr
          -31 114 -23 callsubr
          155 36 104 115 75 46 -23 -50 25 vhcurveto
          -394 vlineto
          -48 -26 -47 -27 -75 hhcurveto
          endchar
        </CharString>
        <CharString name="q.ss06">
          43 1 -21 hstem
          51 1036 vstem
          775 1082 rmoveto
          -25 -119 rlineto
          86 -60 -84 53 -117 hhcurveto
          -274 -164 -222 -31 callgsubr
          164 -235 272 104 -27 callsubr
          -51 112 -23 callsubr
          154 56 107 115 69 48 -20 -43 29 vhcurveto
          -415 vlineto
          -42 -30 -48 -22 -70 hhcurveto
          endchar
        </CharString>
        <CharString name="question">
          -76 9 -21 1201 287 0 -20 hstemhm
          25 961 hintmask 10110000
          343 476 rmoveto
          300 hlineto
          4 107 21 56 79 68 rrcurveto
          136 124 103 74 171 vvcurveto
          264 -181 136 -297 -269 -210 -122 -320 -4 vhcurveto
          360 hlineto
          hintmask 11010000
          109 4 55 46 64 hhcurveto
          79 39 -38 -93 -70 -54 -66 -94 -73 hvcurveto
          hintmask 10110000
          -105 -80 -31 -124 1 -169 rrcurveto
          152 -115 rmoveto
          -117 -82 -80 -3 callsubr
          80 -116 hvcurveto
          endchar
        </CharString>
        <CharString name="questiondown">
          -76 -385 287 -287 1488 hstemhm
          74 958 hintmask 01100000
          582 730 -33 callsubr
          139 -115 rmoveto
          -301 hlineto
          -3 -107 -9 -43 -79 -67 rrcurveto
          -138 -126 -117 -85 -171 vvcurveto
          hintmask 10100000
          -263 180 -138 295 269 210 121 319 4 vhcurveto
          -360 hlineto
          -109 -4 -51 -44 -77 hhcurveto
          -60 -46 31 81 92 63 60 96 83 hvcurveto
          hintmask 01100000
          106 79 22 119 168 vvcurveto
          endchar
        </CharString>
        <CharString name="quotedbl">
          -484 949 588 hstem
          9 242 122 241 vstem
          251 1397 rmoveto
          140 -242 -588 197 vlineto
          408 448 rmoveto
          140 -241 -588 196 vlineto
          endchar
        </CharString>
        <CharString name="quotedblbase">
          -231 -335 610 hstem
          161 267 103 266 vstem
          428 58 rmoveto
          1 12 callgsubr
          -32 11 callsubr
          82 163 145 vvcurveto
          369 hmoveto
          2 12 callgsubr
          -45 11 callsubr
          94 163 145 vvcurveto
          endchar
        </CharString>
        <CharString name="quotedblleft">
          -235 1035 547 hstem
          116 254 101 254 vstem
          116 1209 rmoveto
          -70 callsubr
          355 hmoveto
          -70 callsubr
          endchar
        </CharString>
        <CharString name="quotedblright">
          -230 989 547 hstem
          166 254 114 254 vstem
          420 1362 rmoveto
          -70 callgsubr
          368 hmoveto
          -70 callgsubr
          endchar
        </CharString>
        <CharString name="quoteleft">
          -605 1035 547 hstem
          110 254 vstem
          110 1209 rmoveto
          -70 callsubr
          endchar
        </CharString>
        <CharString name="quoteright">
          -620 989 547 hstem
          152 254 vstem
          406 1362 rmoveto
          -70 callgsubr
          endchar
        </CharString>
        <CharString name="quotesinglbase">
          -553 -315 585 hstem
          161 267 vstem
          428 58 rmoveto
          1 212 rlineto
          -268 -210 hlineto
          -137 -32 -85 -38 -72 vhcurveto
          153 -81 rlineto
          89 81 95 154 138 vvcurveto
          endchar
        </CharString>
        <CharString name="quotesingle">
          -821 934 602 hstem
          35 252 vstem
          287 1357 rmoveto
          179 -252 -602 217 vlineto
          endchar
        </CharString>
        <CharString name="r">
          -341 21 -21 hstemhm
          91 341 -341 678 hintmask 10100000
          674 16 callsubr
          hintmask 11000000
          -101 -82 -59 -104 -53 hvcurveto
          -12 143 rlineto
          -335 -1082 359 659 hlineto
          61 29 64 27 106 hhcurveto
          28 59 -6 -2 27 hvcurveto
          6 352 rlineto
          hintmask 10100000
          8 -27 -34 3 -34 hhcurveto
          endchar
        </CharString>
        <CharString name="registered">
          480 -20 125 548 134 246 133 185 125 hstemhm
          85 122 293 151 301 151 -147 150 276 124 hintmask 1111111010000000
          -83 callsubr
          308 410 rmoveto
          96 -26 79 -73 44 vhcurveto
          hintmask 1111110110000000
          66 39 36 54 73 vvcurveto
          172 -127 94 -198 vhcurveto
          -281 -850 151 337 158 hlineto
          hintmask 1111111010000000
          104 39 -45 -94 hvcurveto
          -54 vlineto
          -29 0 -81 13 -34 vhcurveto
          155 16 hlineto
          -13 30 -4 47 50 vvcurveto
          hintmask 1111110110000000
          -328 328 rmoveto
          -124 246 130 hlineto
          130 45 -33 -97 -78 -84 -39 -97 1 hvcurveto
          endchar
        </CharString>
        <CharString name="ring">
          -459 1062 31 callsubr
          hstem
          118 -7 callsubr
          vstem
          343 1460 rmoveto
          -131 -94 -93 -108 -108 94 -89 131 132 94 89 108 108 -94 93 -132 hvcurveto
          -302 vmoveto
          -64 -37 43 58 57 37 45 64 64 38 -45 -57 -57 -38 -44 -64 hvcurveto
          endchar
        </CharString>
        <CharString name="s">
          -82 -20 242 639 241 hstem
          26 968 vstem
          438 413 rmoveto
          -78 callgsubr
          215 -187 141 -296 -17 callgsubr
          vhcurveto
          endchar
        </CharString>
        <CharString name="section">
          178 -420 292 1314 -39 callgsubr
          94 1109 hintmask 10110000
          1055 253 rmoveto
          95 58 53 89 121 vvcurveto
          234 -178 108 -312 75 vhcurveto
          hintmask 11010000
          -203 51 -44 27 70 vvcurveto
          56 51 44 129 121 58 -57 -76 -29 callgsubr
          272 -205 151 -333 -327 -212 -154 -238 -133 49 -90 90 -68 vhcurveto
          -97 -60 -55 -91 -121 vvcurveto
          -234 185 -103 303 -79 vhcurveto
          197 -51 53 -36 -60 vvcurveto
          -60 -59 -26 -119 -101 -99 9 105 vhcurveto
          -358 1 rlineto
          -318 279 -89 279 324 213 131 248 vhcurveto
          hintmask 10110000
          134 -47 92 -89 68 vhcurveto
          -602 320 rmoveto
          41 11 35 26 26 vhcurveto
          33 -11 36 -11 37 -11 rrcurveto
          198 -57 57 -41 -72 vvcurveto
          -41 -15 -36 -29 -26 vhcurveto
          -34 11 -36 10 -38 10 rrcurveto
          -204 63 -42 27 83 vvcurveto
          endchar
        </CharString>
        <CharString name="semicolon">
          -517 -421 1555 hstem
          182 280 vstem
          303 1134 -63 callsubr
          159 -1105 -50 callgsubr
        </CharString>
        <CharString name="seven">
          62 21 -21 1166 -21 callsubr
          48 1059 vstem
          1107 1255 rmoveto
          201 -1059 -290 682 vlineto
          -537 -1166 rlineto
          379 hlineto
          endchar
        </CharString>
        <CharString name="seven.frac">
          1265 -34 callsubr
          1323 -72 callgsubr
        </CharString>
        <CharString name="seven.smcp">
          -49 21 -21 875 -21 callsubr
          36 968 vstem
          1004 963 rmoveto
          202 -968 -290 592 vlineto
          -469 -875 rlineto
          379 hlineto
          endchar
        </CharString>
        <CharString name="seven.sup">
          21 -21 601 -34 callsubr
          659 -72 callgsubr
        </CharString>
        <CharString name="seven.tnum">
          -60 endchar
        </CharString>
        <CharString name="six">
          -2 callgsubr
          76 1064 hintmask 01110000
          728 -88 callgsubr
        </CharString>
        <CharString name="six.frac">
          653 -56 callgsubr
          1193 -102 callgsubr
        </CharString>
        <CharString name="six.smcp">
          -49 -16 287 -266 -21 922 -21 callgsubr
          55 991 hintmask 01110000
          676 781 rmoveto
          -106 -83 -34 -50 -61 hvcurveto
          217 50 189 -8 154 hhcurveto
          16 292 -64 hlineto
          -297 -419 -114 -541 hvcurveto
          -72 vlineto
          -379 240 -108 271 267 213 171 236 247 -142 143 -228 vhcurveto
          hintmask 10110000
          -122 -510 rmoveto
          -108 -33 31 88 hvcurveto
          63 vlineto
          19 22 45 24 69 hhcurveto
          77 59 -11 -86 -67 -60 -61 -71 hvcurveto
          endchar
        </CharString>
        <CharString name="six.sup">
          -11 -56 callgsubr
          529 -102 callgsubr
        </CharString>
        <CharString name="six.tnum">
          -2 callgsubr
          70 1064 hintmask 01110000
          722 -88 callgsubr
        </CharString>
        <CharString name="slash">
          -431 -4 callgsubr
          -36 732 vstem
          215 -125 rmoveto
          481 1581 rlineto
          -251 hlineto
          -481 -1581 rlineto
          endchar
        </CharString>
        <CharString name="space">
          -620 endchar
        </CharString>
        <CharString name="st">
          647 -20 242 601 259 -221 241 210 248 hstemhm
          26 1736 hintmask 11011000
          1057 1312 rmoveto
          56 98 -17 -122 hvcurveto
          358 hlineto
          228 -145 159 -354 -312 -141 -135 -163 vhcurveto
          hintmask 10111000
          -62 19 -54 29 -58 vhcurveto
          9 -47 -52 5 -55 hhcurveto
          -17 callgsubr
          hvcurveto
          -78 callgsubr
          186 -75 72 159 vvcurveto
          hintmask 11011000
          62 28 87 110 vhcurveto
          621 -1039 rmoveto
          -86 -23 26 70 hvcurveto
          454 175 259 -175 90 -358 -90 -131 -259 131 -457 vlineto
          -272 125 -114 229 71 63 9 22 63 vhcurveto
          266 vlineto
          -1 callsubr
        </CharString>
        <CharString name="sterling">
          105 0 301 243 289 341 301 0 -20 hstemhm
          105 1087 hintmask 11011000
          652 461 rmoveto
          -4 83 rlineto
          293 289 -306 hlineto
          -9 206 rlineto
          hintmask 11101000
          93 35 42 60 69 53 -31 -107 vhcurveto
          349 hlineto
          264 -170 175 -314 -278 -176 -160 -276 vhcurveto
          6 -206 rlineto
          -155 -289 164 hlineto
          3 -112 rlineto
          -71 2 -45 -58 -15 vhcurveto
          -108 -301 1074 301 -579 hlineto
          hintmask 11011000
          35 42 14 51 67 vvcurveto
          endchar
        </CharString>
        <CharString name="sterling.smcp">
          107 0 290 171 200 235 285 hstem
          780 155 vstem
          158 290 rmoveto
          -10 -290 996 hlineto
          -1 290 rlineto
          -648 hlineto
          56 48 36 56 13 67 rrcurveto
          335 200 -340 hlineto
          -4 60 rlineto
          113 -9 33 62 69 hhcurveto
          66 30 -39 -111 hvcurveto
          360 hlineto
          261 -148 174 -311 -283 -174 -169 -291 9 vhcurveto
          2 -60 rlineto
          -159 -200 163 hlineto
          -3 -84 -19 -73 -59 -14 rrcurveto
          endchar
        </CharString>
        <CharString name="t">
          -422 1 -21 843 259 hstem
          14 679 vstem
          609 -16 callgsubr
          272 -358 -272 20 callsubr
          -17 callsubr
          -1 callsubr
        </CharString>
        <CharString name="thorn">
          13 1 -21 hstem
          87 1014 vstem
          680 16 callsubr
          -100 -75 -38 -64 -58 hvcurveto
          536 -360 -1952 360 503 vlineto
          -66 58 76 -41 100 hhcurveto
          274 146 239 9 callgsubr
          19 callsubr
          62 22 callsubr
          -116 -74 -48 27 48 -26 vhcurveto
          399 vlineto
          48 26 46 22 74 hhcurveto
          113 36 -103 -156 hvcurveto
          endchar
        </CharString>
        <CharString name="three">
          62 -86 callsubr
          625 278 304 -39 callgsubr
          41 1078 hintmask 01101100
          880 748 rmoveto
          129 62 87 112 138 vvcurveto
          272 -217 145 -316 -259 -239 -139 -255 -29 callgsubr
          hintmask 10110100
          66 81 38 71 111 50 -73 -64 -106 -55 -61 -114 vhcurveto
          -170 -278 170 hlineto
          120 73 -47 -138 -74 -67 -76 -118 -92 -83 65 77 hvcurveto
          -360 hlineto
          -311 282 -121 240 316 240 156 273 vhcurveto
          hintmask 01101100
          177 -95 109 -144 53 vhcurveto
          endchar
        </CharString>
        <CharString name="three.smcp">
          -49 -65 callgsubr
          499 224 136 339 hstemhm
          24 1005 hintmask 01111000
          809 599 rmoveto
          115 41 84 78 128 vvcurveto
          218 -204 118 -296 -230 -229 -102 -237 -29 callgsubr
          34 55 15 59 102 25 -54 -27 -63 -41 -41 -87 vhcurveto
          -135 -224 135 hlineto
          94 56 -28 -81 hvcurveto
          hintmask 10111000
          -44 -32 -57 -103 -94 -57 52 43 vhcurveto
          -361 hlineto
          -292 272 -92 212 296 225 125 218 vhcurveto
          hintmask 01111000
          166 -94 74 -126 32 vhcurveto
          endchar
        </CharString>
        <CharString name="three.sup">
          -11 -38 callsubr
          406 -86 callgsubr
        </CharString>
        <CharString name="three.tnum">
          -19 endchar
        </CharString>
        <CharString name="tilde">
          -142 1260 -34 callgsubr
          110 -13 callgsubr
          893 -75 callgsubr
        </CharString>
        <CharString name="tildecomb">
          -1130 1260 -34 callgsubr
          -954 -13 callgsubr
          -171 -75 callgsubr
        </CharString>
        <CharString name="two">
          62 0 290 897 -39 callgsubr
          55 1055 hintmask 10110000
          1110 hmoveto
          290 -550 vlineto
          156 157 rlineto
          229 232 132 154 212 vvcurveto
          277 -168 155 -329 -308 -217 -226 -274 vhcurveto
          360 hlineto
          hintmask 11010000
          117 64 93 91 96 52 -52 -121 -64 -51 -99 -115 -126 vhcurveto
          -466 -481 rlineto
          -244 vlineto
          endchar
        </CharString>
        <CharString name="two.smcp">
          -49 0 289 603 -21 callsubr
          41 964 vstem
          1005 hmoveto
          289 -456 vlineto
          76 49 rlineto
          256 180 102 93 189 vvcurveto
          251 -175 131 -313 -275 -179 -192 -231 vhcurveto
          360 hlineto
          63 41 70 73 77 32 -30 -61 -29 -48 -97 -89 -71 vhcurveto
          -419 -363 rlineto
          -241 vlineto
          endchar
        </CharString>
        <CharString name="two.sup">
          0 -40 callgsubr
          hintmask 10100000
          699 hmoveto
          -92 callsubr
        </CharString>
        <CharString name="two.tnum">
          24 endchar
        </CharString>
        <CharString name="u">
          30 -52 callsubr
          -69 callgsubr
          hintmask 01100000
          716 1082 -73 callgsubr
        </CharString>
        <CharString name="uacute">
          30 -52 callsubr
          6 callsubr
          319 -69 callgsubr
          hintmask 01110000
          970 6 callgsubr
          rmoveto
          -373 hlineto
          -91 callsubr
          24 -135 -90 callsubr
        </CharString>
        <CharString name="ucircumflex">
          30 -52 callsubr
          1239 14 -69 callgsubr
          hintmask 01110000
          578 1366 -94 callsubr
          299 -157 -90 callsubr
        </CharString>
        <CharString name="udieresis">
          30 -52 callsubr
          -69 callgsubr
          hintmask 01100000
          842 1225 -104 callsubr
          407 -142 -73 callgsubr
        </CharString>
        <CharString name="ugrave">
          30 -52 callsubr
          6 callsubr
          319 -69 callgsubr
          hintmask 01110000
          786 6 callsubr
          -99 callsubr
          219 -135 -90 callsubr
        </CharString>
        <CharString name="underscore">
          -229 -278 278 hstem
          -2 901 vstem
          899 -278 rmoveto
          278 -901 -278 vlineto
          endchar
        </CharString>
        <CharString name="uni00AD">
          -530 -37 callgsubr
        </CharString>
        <CharString name="uni00B2">
          667 -40 callgsubr
          hintmask 11100000
          699 667 rmoveto
          -92 callsubr
        </CharString>
        <CharString name="uni00B3">
          656 188 152 149 95 228 -188 188 hstemhm
          39 673 -249 233 -218 234 hintmask 00000000
          hintmask 11010010
          562 1073 rmoveto
          hintmask 11010100
          79 28 55 55 85 vvcurveto
          148 -135 79 -197 vhcurveto
          hintmask 11101000
          -157 -152 -72 -156 hvcurveto
          233 hlineto
          hintmask 11010100
          27 40 13 44 72 19 -38 -22 -47 -29 -28 -63 vhcurveto
          -92 -149 92 hlineto
          hintmask 11010010
          67 40 -20 -58 -35 -24 -39 -72 -68 -40 37 32 hvcurveto
          -235 hlineto
          -194 179 -63 146 197 151 85 148 110 -63 51 -87 23 vhcurveto
          endchar
        </CharString>
        <CharString name="uni00B9">
          667 11 callgsubr
          667 rmoveto
          -58 callsubr
        </CharString>
        <CharString name="uni05B0">
          21 callsubr
          hstem
          538 226 vstem
          652 -44 callgsubr
          50 -42 64 hvcurveto
          -294 vmoveto
          65 47 43 57 58 -47 42 -65 -64 -50 -42 -58 -57 50 -43 64 hvcurveto
          endchar
        </CharString>
        <CharString name="uni05B1">
          -8 callsubr
          -158 200 52 17 callgsubr
          236 226 -75 226 -75 226 81 -6 callsubr
          hintmask 01110110
          350 -44 callgsubr
          50 -42 64 hvcurveto
          302 hmoveto
          -88 callsubr
          -58 50 -42 64 hvcurveto
          306 hmoveto
          1 callgsubr
          -58 49 -42 64 hvcurveto
          hintmask 01101000
          -457 -252 -16 callsubr
          -65 -49 -43 -58 -58 30 callsubr
          hintmask 10100010
          457 -42 rmoveto
          66 47 43 57 58 -47 42 -66 -64 -49 -42 -58 -57 49 -43 64 hvcurveto
          endchar
        </CharString>
        <CharString name="uni05B2">
          -12 callgsubr
          846 -6 callsubr
          hintmask 01010000
          960 -44 callgsubr
          49 -42 65 hvcurveto
          hintmask 10110000
          -725 25 rmoveto
          521 152 -521 hlineto
          725 -471 -26 callsubr
        </CharString>
        <CharString name="uni05B3">
          -12 callgsubr
          381 225 240 -6 callsubr
          hintmask 01011000
          960 -44 callgsubr
          49 -42 65 hvcurveto
          -467 -297 rmoveto
          66 47 43 57 hvcurveto
          hintmask 00110000
          60 -56 14 -12 148 vhcurveto
          217 152 -521 -152 215 hlineto
          -11 -148 -57 -14 -60 vvcurveto
          hintmask 01011000
          -58 49 -42 63 vhcurveto
          hintmask 10101000
          467 3 -26 callsubr
        </CharString>
        <CharString name="uni05B4">
          -1130 -353 200 hstem
          538 226 vstem
          652 -72 callsubr
          -59 -44 callsubr
          hvcurveto
          endchar
        </CharString>
        <CharString name="uni05B5">
          -1130 -353 17 callgsubr
          387 226 75 -6 callsubr
          hintmask 11100000
          501 -353 rmoveto
          -68 callgsubr
          301 hmoveto
          -68 callgsubr
          endchar
        </CharString>
        <CharString name="uni05B6">
          -1130 -605 200 52 17 callgsubr
          387 226 -75 226 -76 -6 callsubr
          hintmask 11101000
          501 -353 rmoveto
          -68 callgsubr
          301 hmoveto
          -68 callgsubr
          hintmask 11010000
          -150 -252 -16 callsubr
          -64 -50 -43 -58 8 callsubr
          endchar
        </CharString>
        <CharString name="uni05B7">
          -1130 16 callgsubr
          hstem
          394 515 vstem
          394 -328 -19 callsubr
        </CharString>
        <CharString name="uni05B8">
          -1130 16 callgsubr
          hstemhm
          538 -6 callsubr
          hintmask 11000000
          651 -609 rmoveto
          18 callsubr
          hvcurveto
          180 152 -447 -152 -2 callsubr
          vhcurveto
          endchar
        </CharString>
        <CharString name="uni05B9">
          -23 callgsubr
          210 227 vstem
          324 -60 callsubr
          endchar
        </CharString>
        <CharString name="uni05BA">
          -23 callgsubr
          210 227 vstem
          324 -60 callsubr
          endchar
        </CharString>
        <CharString name="uni05BB">
          -1130 -862 200 55 199 55 17 callgsubr
          538 226 -77 226 -77 -6 callsubr
          hintmask 11110000
          651 -353 rmoveto
          1 callgsubr
          -59 49 -41 64 hvcurveto
          hintmask 11101000
          150 -254 rmoveto
          64 48 41 58 55 -48 45 -64 -66 -48 -42 -58 -59 49 -40 65 hvcurveto
          hintmask 11100100
          149 -255 -16 callsubr
          -65 -49 -43 -58 -57 49 -42 65 hvcurveto
          endchar
        </CharString>
        <CharString name="uni05BC">
          -1130 505 199 hstem
          229 227 vstem
          343 505 -105 callgsubr
          endchar
        </CharString>
        <CharString name="uni05BE">
          -502 9 callsubr
          60 508 vstem
          568 918 rmoveto
          292 -508 -292 vlineto
          endchar
        </CharString>
        <CharString name="uni05BF">
          -1130 1372 185 hstem
          211 631 vstem
          211 -25 callsubr
          endchar
        </CharString>
        <CharString name="uni05C1">
          -23 callgsubr
          1357 227 vstem
          1471 -59 callsubr
          endchar
        </CharString>
        <CharString name="uni05C2">
          -23 callgsubr
          196 227 vstem
          309 -59 callgsubr
          endchar
        </CharString>
        <CharString name="uni05D0">
          276 21 -21 -22 callgsubr
          85 1257 vstem
          -97 callgsubr
          endchar
        </CharString>
        <CharString name="uni05D1">
          1 -9 callsubr
          48 1064 vstem
          974 304 -81 callsubr
          endchar
        </CharString>
        <CharString name="uni05D2">
          -159 5 -21 28 -21 30 -21 -71 callgsubr
          hstemhm
          7 857 hintmask 00000000
          hintmask 10011000
          99 -40 callsubr
          hintmask 00111000
          -85 callsubr
          hintmask 01011000
          -339 vlineto
          hintmask 10011000
          -4 29 32 -3 31 hhcurveto
          endchar
        </CharString>
        <CharString name="uni05D2.001">
          -107 5 -21 28 -21 30 -21 -71 callgsubr
          hstemhm
          59 857 hintmask 00000000
          hintmask 10011000
          151 -40 callsubr
          hintmask 00111000
          -85 callsubr
          hintmask 01011000
          -339 vlineto
          hintmask 10011000
          -4 29 32 -3 31 hhcurveto
          endchar
        </CharString>
        <CharString name="uni05D3">
          77 -87 callsubr
          60 1077 vstem
          -27 callgsubr
          endchar
        </CharString>
        <CharString name="uni05D4">
          187 -87 callsubr
          138 1055 vstem
          -43 callgsubr
          -676 -792 -37 callsubr
        </CharString>
        <CharString name="uni05D5">
          -446 -87 callsubr
          62 468 vstem
          151 hmoveto
          -1 callgsubr
        </CharString>
        <CharString name="uni05D6">
          -298 -87 callsubr
          63 713 vstem
          -35 callsubr
          endchar
        </CharString>
        <CharString name="uni05D7">
          195 -87 callsubr
          154 1047 vstem
          154 32 callsubr
          hlineto
          -1 918 rlineto
          184 hlineto
          65 40 -47 -83 hvcurveto
          -24 callgsubr
          -3 -167 157 -314 hhcurveto
          -562 hlineto
          endchar
        </CharString>
        <CharString name="uni05D8">
          200 -25 287 948 -20 35 -20 hstemhm
          154 1097 hintmask 10110000
          -76 callsubr
          hintmask 11010000
          744 -379 -696 vlineto
          hintmask 10110000
          18 callgsubr
          endchar
        </CharString>
        <CharString name="uni05D9">
          -382 9 callsubr
          49 552 vstem
          223 512 -77 callsubr
          endchar
        </CharString>
        <CharString name="uni05DA">
          -35 9 callsubr
          72 869 vstem
          -19 callgsubr
          endchar
        </CharString>
        <CharString name="uni05DB">
          3 callgsubr
          938 -21 callgsubr
          56 937 hintmask 01110000
          413 -20 rmoveto
          349 1 231 159 415 vvcurveto
          655 -889 -292 510 -425 vlineto
          hintmask 10110000
          -150 -71 -74 -187 -1 vhcurveto
          -66 1 -80 10 -97 18 -57 -274 rcurveline
          hintmask 01110000
          -27 128 120 -16 109 hhcurveto
          endchar
        </CharString>
        <CharString name="uni05DC">
          18 -87 callsubr
          56 1023 vstem
          -46 callgsubr
          endchar
        </CharString>
        <CharString name="uni05DD">
          242 -9 callsubr
          154 1064 vstem
          154 hmoveto
          1064 -63 callgsubr
          -1064 25 callgsubr
          306 -625 vlineto
          endchar
        </CharString>
        <CharString name="uni05DE">
          263 0 292 646 307 hstem
          91 1178 vstem
          -85 callgsubr
          endchar
        </CharString>
        <CharString name="uni05DF">
          -444 9 callsubr
          67 465 vstem
          160 -416 rmoveto
          372 1626 -465 -292 93 hlineto
          endchar
        </CharString>
        <CharString name="uni05E0">
          -272 1 -21 938 22 callgsubr
          59 645 vstem
          -65 callsubr
          endchar
        </CharString>
        <CharString name="uni05E1">
          201 -25 310 653 307 hstemhm
          35 1208 hintmask 00000000
          hintmask 11100000
          -90 callgsubr
          endchar
        </CharString>
        <CharString name="uni05E2">
          203 -22 callgsubr
          60 1119 vstem
          800 -64 callsubr
          -698 vlineto
          -106 -41 -74 -75 -42 vhcurveto
          -12 27 -8 28 -6 30 -170 7 callsubr
          -57 37 -56 43 -40 rlinecurve
          -73 13 -82 23 -89 34 -76 -275 rcurveline
          -69 187 169 -22 148 hhcurveto
          367 248 193 371 hvcurveto
          678 vlineto
          endchar
        </CharString>
        <CharString name="uni05E3">
          187 369.73 -5 callsubr
          291 22 callgsubr
          127 1036 vstem
          -78 callsubr
          endchar
        </CharString>
        <CharString name="uni05E4">
          -15 callsubr
          228 22 callgsubr
          127 1113 vstem
          625 -29 -97 callsubr
          endchar
        </CharString>
        <CharString name="uni05E5">
          102 -22 callgsubr
          13 1197 vstem
          -63 callgsubr
          -64 callsubr
          -423 hlineto
          -147 -354 -206 354 rlineto
          -421 hlineto
          508 -756 rlineto
          25 -39 10 -29 -35 vvcurveto
          -767 361 725 vlineto
          79 -17 59 -38 65 vhcurveto
          endchar
        </CharString>
        <CharString name="uni05E6">
          120 0 293 917 -20 hstem
          13 1197 vstem
          -60 callgsubr
          endchar
        </CharString>
        <CharString name="uni05E7">
          238 -87 callsubr
          154 1060 vstem
          -51 callsubr
          -452 -701 -36 callgsubr
        </CharString>
        <CharString name="uni05E8">
          -106 -87 callsubr
          21 879 vstem
          -43 callsubr
          endchar
        </CharString>
        <CharString name="uni05E8.001">
          -93 callsubr
        </CharString>
        <CharString name="uni05E8.002">
          -93 callsubr
        </CharString>
        <CharString name="uni05E8.003">
          -93 callsubr
        </CharString>
        <CharString name="uni05E8.004">
          -93 callsubr
        </CharString>
        <CharString name="uni05E9">
          -10 callsubr
          hstem
          154 1539 vstem
          519 1210 -106 callgsubr
          endchar
        </CharString>
        <CharString name="uni05EA">
          215 0 -21 36 -21 27 -21 -71 callgsubr
          hstemhm
          10 1211 hintmask 00111000
          737 -64 callsubr
          -641 -75 callsubr
          149 hlineto
          65 38 -47 -83 hvcurveto
          hintmask 00111000
          -24 callgsubr
          -169 157 -315 vhcurveto
          endchar
        </CharString>
        <CharString name="uni05F0">
          238 -87 callsubr
          62 1152 vstem
          151 hmoveto
          -67 callgsubr
          684 -918 -11 callgsubr
        </CharString>
        <CharString name="uni05F1">
          302 -87 callsubr
          62 1223 vstem
          151 hmoveto
          -67 callgsubr
          756 -406 -77 callsubr
          endchar
        </CharString>
        <CharString name="uni05F2">
          366 9 callsubr
          49 1300 vstem
          223 512 -77 callsubr
          748 -406 -77 callsubr
          endchar
        </CharString>
        <CharString name="uni05F3">
          -605 1462 -20 hstemhm
          22 445 -336 27 callsubr
          hintmask 11000000
          249 842 rmoveto
          hintmask 10100000
          126 104 90 184 1 -42 callsubr
          -63 -89 vhcurveto
          endchar
        </CharString>
        <CharString name="uni05F4">
          -63 1462 -20 hstemhm
          54 935 -826 27 callsubr
          154.5 27 callsubr
          hintmask 11000000
          282 842 rmoveto
          hintmask 10110000
          125 104 90 184 1 -42 callsubr
          -63 -89 vhcurveto
          717 -85 rmoveto
          125 104 90 184 2 -42 callsubr
          -64 -89 vhcurveto
          endchar
        </CharString>
        <CharString name="uni1E9E">
          311 -21 290 -269 -21 21 45 -24 -21 1187 -39 callgsubr
          59 1297 hintmask 00010110
          993 847 rmoveto
          324 362 rlineto
          174 -237 -211 94 -262 hhcurveto
          -367 -180 -178 -341 -1 hvcurveto
          -958 360 956 vlineto
          hintmask 10001010
          205 103 26 85 103 82 -35 -54 72 vhcurveto
          -244 -257 rlineto
          -204 127 vlineto
          163 88 -46 -162 -105 -75 -55 -125 -90 -82 30 15 -36 hvcurveto
          hintmask 00100110
          -103 -269 rlineto
          hintmask 01000110
          -34 77 112 -32 179 hhcurveto
          267 234 143 305 hvcurveto
          hintmask 00010110
          233 -131 142 -232 45 vhcurveto
          endchar
        </CharString>
        <CharString name="uni1E9E.smcp">
          22 0 -21 21 45 -24 -21 903 277 hstemhm
          73 1042 hintmask 00111000
          820 676 rmoveto
          194 223 rlineto
          191 -135 -150 90 -202 hhcurveto
          -292 -161 -151 -292 -1 hvcurveto
          -737 347 735 vlineto
          136 65 32 36 41 42 -23 -40 33 vhcurveto
          -132 -162 rlineto
          -209 79 vlineto
          116 69 -30 -86 -65 -38 -32 -55 -41 -40 30 15 -15 hvcurveto
          hintmask 01011000
          -103 -256 rlineto
          hintmask 10011000
          -34 53 78 -32 125 hhcurveto
          200 182 118 255 hvcurveto
          hintmask 00111000
          167 -106 112 -189 45 vhcurveto
          endchar
        </CharString>
        <CharString name="uni200C">
          -1130 -200 1345 hstem
          -704 262 vstem
          -704 1145 rmoveto
          -1345 262 1345 vlineto
          endchar
        </CharString>
        <CharString name="uni200D">
          -1130 1216 -20 hstem
          -704 262 vstem
          -221 1389 rmoveto
          -193 182 -161 -165 -161 165 -193 -182 169 -173 -169 -173 192 -182 33 34 rlineto
          -1095 262 1091 vlineto
          29 -30 192 182 -169 173 rlineto
          endchar
        </CharString>
        <CharString name="uni200E">
          23 callsubr
          -921 262 vstem
          -310 1580 rmoveto
          -265 hlineto
          117 -155 rlineto
          -463 -1625 262 1388 204 hlineto
          -117 -161 rlineto
          265 hlineto
          179 280 rlineto
          endchar
        </CharString>
        <CharString name="uni200F">
          23 callsubr
          -556 262 vstem
          -757 1425 rmoveto
          117 155 rlineto
          -265 hlineto
          -183 -273 180 -280 rlineto
          265 hlineto
          -118 161 rlineto
          205 -1388 262 1625 hlineto
          endchar
        </CharString>
        <CharString name="uni2070">
          656 -68 callsubr
          966 -100 callsubr
        </CharString>
        <CharString name="uni2074">
          821 190 445 -20 -24 callsubr
          1011 -93 callgsubr
        </CharString>
        <CharString name="uni2075">
          656 -69 callsubr
          hintmask 01110000
          71 1045 -100 callgsubr
        </CharString>
        <CharString name="uni2076">
          656 -56 callgsubr
          1196 -102 callgsubr
        </CharString>
        <CharString name="uni2077">
          1268 -34 callsubr
          1326 -72 callgsubr
        </CharString>
        <CharString name="uni2078">
          656 -84 callgsubr
          1074 -106 callsubr
        </CharString>
        <CharString name="uni2079">
          651 -74 callgsubr
          1468 -103 callsubr
        </CharString>
        <CharString name="uni2080">
          -369 -68 callsubr
          -59 -100 callsubr
        </CharString>
        <CharString name="uni2081">
          -358 11 callgsubr
          -358 rmoveto
          -58 callsubr
        </CharString>
        <CharString name="uni2082">
          -358 -40 callgsubr
          hintmask 10100000
          699 -358 rmoveto
          -92 callsubr
        </CharString>
        <CharString name="uni2083">
          -369 -38 callsubr
          48 -86 callgsubr
        </CharString>
        <CharString name="uni2084">
          -204 190 -24 callsubr
          -14 -93 callgsubr
        </CharString>
        <CharString name="uni2085">
          -369 -69 callsubr
          hintmask 01110000
          71 20 -100 callgsubr
        </CharString>
        <CharString name="uni2086">
          -369 187 167 186 90 192 hstemhm
          61 233 195 234 hintmask 00000000
          hintmask 11111000
          473 171 -102 callgsubr
        </CharString>
        <CharString name="uni2087">
          243 -34 callsubr
          301 -72 callgsubr
        </CharString>
        <CharString name="uni2088">
          -369 -84 callgsubr
          49 -106 callsubr
        </CharString>
        <CharString name="uni2089">
          -374 -74 callgsubr
          443 -103 callsubr
        </CharString>
        <CharString name="uni20AA">
          899 0 302.5 607.5 0 callgsubr
          124 1751 vstem
          124 hmoveto
          347 910 579 -163 hlineto
          -68 -12 -110 -16 -82 vhcurveto
          18 -14 300 48 rlineto
          38 77 18 126 61 vvcurveto
          427 -1272 vlineto
          479 -1212 rmoveto
          594 hlineto
          438 243 215 370 -3 hvcurveto
          627 -346 -636 vlineto
          -183 -143 -92 -179 1 vhcurveto
          -258 1 rlineto
          433 -346 vlineto
          endchar
        </CharString>
        <CharString name="uniFB1F">
          366 16 callgsubr
          1094 22 callgsubr
          49 1300 vstem
          223 512 -77 callsubr
          748 -406 -77 callsubr
          -817 -1246 -19 callsubr
        </CharString>
        <CharString name="uniFB20">
          232 -22 callgsubr
          60 1148 vstem
          829 -64 callsubr
          -29 -696 -3 -98 -35 -70 -61 -43 rlinecurve
          -10 22 -6 25 -6 25 -169 7 callsubr
          -58 38 -57 44 -41 rlinecurve
          -79 12 -90 25 -99 38 -76 -275 rcurveline
          -68 187 169 -33 148 hhcurveto
          367 232 203 371 16 hvcurveto
          29 676 rlineto
          endchar
        </CharString>
        <CharString name="uniFB21">
          788 21 -21 -22 callgsubr
          85 1769 vstem
          1854 -64 callsubr
          -422 hlineto
          -255 -579 -595 579 rlineto
          -497 hlineto
          274 -270 rlineto
          -123 -81 -57 -123 -176 vvcurveto
          -560 365 561 vlineto
          76 5 57 10 49 vhcurveto
          755 -743 rlineto
          511 hlineto
          -381 371 rlineto
          endchar
        </CharString>
        <CharString name="uniFB22">
          357 -87 callsubr
          60 1357 vstem
          60 -64 callsubr
          -292 710 -918 378 900 vlineto
          269 31 rlineto
          279 vlineto
          endchar
        </CharString>
        <CharString name="uniFB23">
          550 -87 callsubr
          138 1418 vstem
          1177 -14 callgsubr
          -909 -292 878 hlineto
          103 -4 callsubr
          -1039 -777 rmoveto
          372 398 hlineto
          82 23 134 4 43 vhcurveto
          -16 15 -339 -47 rlineto
          3 8 -47 -105 -129 vvcurveto
          endchar
        </CharString>
        <CharString name="uniFB24">
          419 -41 305 654 22 callgsubr
          56 1339 vstem
          655 -41 rmoveto
          446 290 185 390 4 hvcurveto
          676 -1286 -292 907 -381 vlineto
          -174 -2 -99 -99 -272 hhcurveto
          -125 -205 21 43 -204 hvcurveto
          -53 -292 rlineto
          -50 200 232 -27 167 hhcurveto
          endchar
        </CharString>
        <CharString name="uniFB25">
          350 -87 callsubr
          56 1355 vstem
          1411 -64 callsubr
          -976 237 -379 -529 908 hlineto
          -511 -918 rlineto
          399 hlineto
          559 967 rlineto
          endchar
        </CharString>
        <CharString name="uniFB26">
          728 -9 callsubr
          175 1519 vstem
          175 hmoveto
          1519 -63 callgsubr
          -1519 25 callgsubr
          761 -625 vlineto
          endchar
        </CharString>
        <CharString name="uniFB27">
          233 -87 callsubr
          21 1218 vstem
          860 -14 callgsubr
          -715 -292 684 hlineto
          104 51 -47 -94 hvcurveto
          endchar
        </CharString>
        <CharString name="uniFB28">
          720 0 -21 36 -21 27 -21 -71 callgsubr
          hstemhm
          10 1716 hintmask 00111000
          1243 -64 callsubr
          -1147 -75 callsubr
          654 hlineto
          65 40 -47 -83 hvcurveto
          hintmask 00111000
          1 -788 rlineto
          377 754 hlineto
          299 -169 157 -314 vhcurveto
          endchar
        </CharString>
        <CharString name="uniFB29">
          -38 526 313 hstem
          377 342 vstem
          377 1206 rmoveto
          -367 -329 -313 998 313 -327 367 vlineto
          endchar
        </CharString>
        <CharString name="uniFB2A">
          -10 callsubr
          173 17 callgsubr
          1378 3 callsubr
          hintmask 11110000
          1492 -59 callsubr
          -973 -153 -106 callgsubr
          endchar
        </CharString>
        <CharString name="uniFB2B">
          -10 callsubr
          173 17 callgsubr
          209 3 callsubr
          hintmask 11110000
          322 -59 callgsubr
          197 -153 -106 callgsubr
          endchar
        </CharString>
        <CharString name="uniFB2C">
          -32 callgsubr
          173 17 callgsubr
          1094 227 57 3 callsubr
          hintmask 11111100
          1492 -59 callsubr
          -973 -153 -106 callgsubr
          497 94 -105 callgsubr
          endchar
        </CharString>
        <CharString name="uniFB2D">
          -32 callgsubr
          173 17 callgsubr
          209 227 658 3 callsubr
          hintmask 11111100
          322 -59 callgsubr
          197 -153 -106 callgsubr
          497 94 -105 callgsubr
          endchar
        </CharString>
        <CharString name="uniFB2E">
          276 16 callgsubr
          197 -21 -22 callgsubr
          85 1257 vstem
          -97 callgsubr
          -542 -828 -19 callsubr
        </CharString>
        <CharString name="uniFB2F">
          276 16 callgsubr
          197 -21 -63 callgsubr
          -20 hstemhm
          85 1257 -752 226 hintmask 11110000
          -97 callgsubr
          -508 -828 rmoveto
          hintmask 11101000
          -2 callsubr
          18 callsubr
          vhcurveto
          180 152 -447 hlineto
          endchar
        </CharString>
        <CharString name="uniFB30">
          276 0 233 -212 -21 34 199 977 -20 hstemhm
          85 1257 -817 227 hintmask 01111000
          -97 callgsubr
          hintmask 10010100
          -349 -267 rmoveto
          -64 -50 -41 -59 hvcurveto
          hintmask 01110100
          -58 -44 callsubr
          67 46 42 57 vhcurveto
          hintmask 10010100
          59 -46 41 -67 vhcurveto
          endchar
        </CharString>
        <CharString name="uniFB31">
          1 0 293 211 -61 callgsubr
          48 1064 -895 -30 callgsubr
          974 304 -81 callsubr
          hintmask 11101000
          -668 322 -55 callgsubr
        </CharString>
        <CharString name="uniFB32">
          -159 5 -21 28 -21 30 -21 504 -61 callgsubr
          7 857 -827 3 callsubr
          hintmask 10011100
          99 -40 callsubr
          hintmask 00111100
          -85 callsubr
          hintmask 01011100
          -339 vlineto
          hintmask 10011100
          -4 29 32 -3 31 hhcurveto
          hintmask 00111010
          52 520 -105 callgsubr
          endchar
        </CharString>
        <CharString name="uniFB33">
          77 21 -21 504 -61 callgsubr
          60 1077 -976 -30 callgsubr
          -27 callgsubr
          hintmask 11101000
          -862 -706 -105 callgsubr
          endchar
        </CharString>
        <CharString name="uniFB34">
          187 21 -21 504 174 240 -21 callgsubr
          138 1055 -649 -30 callgsubr
          -43 callgsubr
          hintmask 11101000
          -156 -288 -105 callgsubr
          -520 -504 -37 callsubr
        </CharString>
        <CharString name="uniFB35">
          -446 21 -21 504 -61 callgsubr
          -115 227 -227 645 hintmask 11101000
          151 hmoveto
          -67 callgsubr
          hintmask 11110000
          -152 -414 -105 callgsubr
          endchar
        </CharString>
        <CharString name="uniFB36">
          -298 21 -21 504 -61 callgsubr
          63 737 -227 -30 callgsubr
          -35 callsubr
          hintmask 11101000
          564 -403 -105 callgsubr
          endchar
        </CharString>
        <CharString name="uniFB38">
          200 -25 287 242 199 507 -20 35 -20 hstemhm
          154 1097 -662 227 hintmask 11011000
          -76 callsubr
          hintmask 11101000
          744 -379 -696 vlineto
          hintmask 11011000
          18 callgsubr
          hintmask 11010100
          529 vmoveto
          67 46 42 57 59 -46 41 -67 -64 -50 -41 -59 8 callsubr
          endchar
        </CharString>
        <CharString name="uniFB39">
          -382 645 199 74 -21 callgsubr
          -78 227 -227 679 hintmask 11010000
          223 512 -77 callsubr
          hintmask 11100000
          -187 -273 -105 callgsubr
          endchar
        </CharString>
        <CharString name="uniFB3A">
          -35 604 199 115 -21 callgsubr
          72 869 -763 227 hintmask 01100000
          -19 callgsubr
          hintmask 11010000
          -277 -314 -105 callgsubr
          endchar
        </CharString>
        <CharString name="uniFB3B">
          3 callgsubr
          524 -61 callgsubr
          56 937 -770 227 hintmask 01111000
          413 -20 -71 callsubr
          hintmask 01110100
          -76 524 -105 callgsubr
          endchar
        </CharString>
        <CharString name="uniFB3C">
          18 21 -21 550 199 169 -21 callgsubr
          56 1023 -906 -30 callgsubr
          -46 callgsubr
          hintmask 11101000
          -679 -318 -55 callgsubr
        </CharString>
        <CharString name="uniFB3E">
          263 0 292 212 199 235 307 hstemhm
          91 1178 -645 -30 callgsubr
          -85 callgsubr
          hintmask 11101000
          521 -133 -105 callgsubr
          endchar
        </CharString>
        <CharString name="uniFB40">
          -272 1 -21 524 -61 callgsubr
          5 227 -227 699 hintmask 11101000
          -65 callsubr
          hintmask 11110000
          -189 524 -105 callgsubr
          endchar
        </CharString>
        <CharString name="uniFB41">
          201 -25 310 219 199 235 307 hstemhm
          35 1208 -672 -30 callgsubr
          -90 callgsubr
          hintmask 11101000
          1 219 -105 callgsubr
          endchar
        </CharString>
        <CharString name="uniFB43">
          187 369.73 -5 callsubr
          28 199 64 -21 callgsubr
          550 69 hintmask 10110000
          -78 callsubr
          hintmask 11110000
          -499 1071 -105 callgsubr
          endchar
        </CharString>
        <CharString name="uniFB44">
          -15 callsubr
          -11 199 40 -21 callgsubr
          594 25 hintmask 11011000
          625 -29 -97 callsubr
          hintmask 10111000
          83 708 -105 callgsubr
          endchar
        </CharString>
        <CharString name="uniFB46">
          120 0 293 70 199 648 -20 hstemhm
          13 1197 -1045 -30 callgsubr
          -60 callgsubr
          hintmask 11101000
          -474 -60 -55 callgsubr
        </CharString>
        <CharString name="uniFB47">
          238 21 -21 504 167 247 -21 callgsubr
          154 1060 -647 -30 callgsubr
          -51 callsubr
          hintmask 11101000
          72 219 -105 callgsubr
          -524 -920 -36 callgsubr
        </CharString>
        <CharString name="uniFB48">
          -106 21 -21 504 -61 callgsubr
          21 879 -760 -30 callgsubr
          -43 callsubr
          hintmask 11101000
          -267 -273 -105 callgsubr
          endchar
        </CharString>
        <CharString name="uniFB49">
          -32 callgsubr
          hstemhm
          154 1539 -599 -30 callgsubr
          519 1210 -106 callgsubr
          hintmask 11101000
          497 94 -105 callgsubr
          endchar
        </CharString>
        <CharString name="uniFB4A">
          215 0 -21 36 -21 27 -21 504 -61 callgsubr
          10 1211 -631 227 hintmask 00111100
          737 -64 callsubr
          -641 -292 170 hlineto
          -43 -78 -15 -109 -61 vvcurveto
          -251 vlineto
          -93 -52 -44 -82 vhcurveto
          -23 -21 1 -20 hhcurveto
          hintmask 01011100
          -289 vlineto
          hintmask 10011100
          -10 59 47 -5 64 hhcurveto
          247 149 153 257 hvcurveto
          317 vlineto
          56 4 80 9 76 vhcurveto
          149 hlineto
          65 38 -47 -83 hvcurveto
          hintmask 00111100
          -24 callgsubr
          -169 157 -315 vhcurveto
          hintmask 00111010
          -33 -706 -105 callgsubr
          endchar
        </CharString>
        <CharString name="uniFB4B">
          -446 21 -21 -71 callgsubr
          153 17 callgsubr
          187 3 callsubr
          hintmask 11110000
          301 -60 callsubr
          -150 -1363 -11 callgsubr
        </CharString>
        <CharString name="uniFB4C">
          1 0 293 625 15 callgsubr
          hstem
          48 1064 vstem
          838 1557 rmoveto
          -631 -185 631 hlineto
          136 -1068 -81 callsubr
          endchar
        </CharString>
        <CharString name="uniFB4D">
          3 callgsubr
          938 15 callgsubr
          hstemhm
          56 937 hintmask 01111000
          226 -25 callsubr
          187 -1577 -71 callsubr
          endchar
        </CharString>
        <CharString name="uniFB4E">
          264 432.73 -5 callsubr
          228 15 callgsubr
          hstem
          127 1113 vstem
          349 -25 callsubr
          276 -1586 -97 callsubr
          endchar
        </CharString>
        <CharString name="uniFB4F">
          173 21 -21 -22 callgsubr
          56 1183 vstem
          1239 -64 callsubr
          -423 hlineto
          -165 -377 -216 318 rlineto
          296 -379 -361 vlineto
          739 -1086 rlineto
          422 hlineto
          -335 493 rlineto
          endchar
        </CharString>
        <CharString name="v">
          -62 -29 callsubr
          -2 1070 vstem
          689 1082 rmoveto
          -157 -650 -154 650 rlineto
          -380 hlineto
          348 -1082 rlineto
          373 hlineto
          349 1082 rlineto
          endchar
        </CharString>
        <CharString name="w">
          350 -29 callsubr
          20 1436 vstem
          1114 1082 rmoveto
          -96 -593 -157 593 rlineto
          -247 hlineto
          -160 -614 -92 614 rlineto
          -342 hlineto
          246 -1082 rlineto
          304 hlineto
          170 588 166 -588 rlineto
          305 hlineto
          245 1082 rlineto
          endchar
        </CharString>
        <CharString name="x">
          -70 -29 callsubr
          7 1060 vstem
          538 811 rmoveto
          -141 271 rlineto
          -373 hlineto
          273 -525 -290 -557 rlineto
          373 hlineto
          156 297 159 -297 rlineto
          372 hlineto
          -289 557 274 525 rlineto
          -368 hlineto
          endchar
        </CharString>
        <CharString name="y">
          28 callsubr
          -288 1519 hstemhm
          -9 1097 hintmask 01100000
          704 1082 -50 callsubr
          rlineto
          hintmask 10100000
          -82 callgsubr
        </CharString>
        <CharString name="yacute">
          28 callsubr
          1366 -38 callgsubr
          -9 1097 vstem
          924 6 callgsubr
          rmoveto
          -373 hlineto
          -91 callsubr
          58 -135 -50 callsubr
          -82 callgsubr
        </CharString>
        <CharString name="ydieresis">
          28 callsubr
          -288 1942 hstemhm
          -9 1097 hintmask 01100000
          796 1225 -104 callsubr
          441 -142 -50 callsubr
          rlineto
          hintmask 10100000
          -82 callgsubr
        </CharString>
        <CharString name="yen">
          -17 21 -21 245 207 82 208 714 -20 hstem
          9 1094 vstem
          1103 -39 callsubr
          -376 hlineto
          -170 -490 -171 490 rlineto
          -377 hlineto
          296 -714 rlineto
          -240 -208 302 -82 -302 -207 302 -245 372 245 265 207 -265 82 265 208 -195 hlineto
          endchar
        </CharString>
        <CharString name="yen.smcp">
          -189 21 -21 220 200 64 201 hstem
          3 935 vstem
          938 -35 callgsubr
          -375 hlineto
          -93 -337 -93 337 rlineto
          -374 hlineto
          188 -480 rlineto
          -170 -201 248 hlineto
          18 -45 rlineto
          -19 -266 -200 266 -220 360 220 266 200 -266 4 vlineto
          24 60 rlineto
          242 201 -163 hlineto
          endchar
        </CharString>
        <CharString name="z">
          -70 0 290 502 -21 callsubr
          63 928 vstem
          531 290 rmoveto
          452 597 rlineto
          195 -897 -290 428 vlineto
          -451 -591 rlineto
          -201 928 290 vlineto
          endchar
        </CharString>
        <CharString name="zero">
          62 -86 callsubr
          1206 -39 callgsubr
          82 1029 hintmask 01011000
          1111 586 rmoveto
          281 vlineto
          400 -214 209 -301 -304 -210 -209 -400 vhcurveto
          -281 vlineto
          -400 212 -206 304 301 212 206 400 vhcurveto
          hintmask 10101000
          -359 326 rmoveto
          -369 vlineto
          -209 -60 -64 -94 -98 -60 64 209 vhcurveto
          369 vlineto
          204 59 70 97 95 61 -70 -204 vhcurveto
          endchar
        </CharString>
        <CharString name="zero.frac">
          653 -68 callsubr
          963 -100 callsubr
        </CharString>
        <CharString name="zero.smcp">
          -49 -65 callgsubr
          907 290 hstemhm
          66 950 hintmask 01110000
          1016 435 rmoveto
          286 vlineto
          306 -201 154 -275 -279 -195 -154 -306 vhcurveto
          -286 vlineto
          -307 197 -144 279 275 199 144 307 vhcurveto
          -359 288 rmoveto
          -288 vlineto
          hintmask 10110000
          -139 -48 -23 -67 -72 -46 23 139 vhcurveto
          288 vlineto
          132 45 36 71 vhcurveto
          hintmask 01110000
          69 48 -36 -132 hvcurveto
          endchar
        </CharString>
        <CharString name="zero.sup">
          -11 -68 callsubr
          299 -100 callsubr
        </CharString>
        <CharString name="zero.tnum">
          68 endchar
        </CharString>
      <CharString index="0">
        rmoveto
        53 vlineto
        446 -271 276 -374 -380 -264 -276 -446 vhcurveto
        -53 vlineto
        -446 266 -275 380 374 269 275 446 vhcurveto
        -381 55 rmoveto
        -55 vlineto
        -266 -93 -151 -169 -179 -86 151 266 vhcurveto
        55 vlineto
        270 84 145 179 169 95 -145 -270 vhcurveto
        endchar
      </CharString>
      <CharString index="1">
        rmoveto
        -365 -1084 hlineto
        -111 231 266 -56 232 hhcurveto
        445 365 202 417 hvcurveto
        632 -366 -588 vlineto
        -261 -186 -109 -273 -106 -138 32 45 -105 vhcurveto
        192 81 rmoveto
        306 2 rlineto
        48 63 35 141 135 vvcurveto
        459 -366 -542 vlineto
        -102 -10 -107 -13 -49 vhcurveto
        return
      </CharString>
      <CharString index="2">
        rmoveto
        67 46 42 57 59 -46 41 -67 -64 -50 -41 -59 8 callsubr
        return
      </CharString>
      <CharString index="3">
        361 hlineto
        -458 -47 callgsubr
        rlineto
        -347 hlineto
        -447 -1165 rlineto
        360 hlineto
        62 183 rlineto
        404 hlineto
        -319 251 rmoveto
        102 301 10 47 10 -50 107 -298 rlineto
        endchar
      </CharString>
      <CharString index="4">
        402 hlineto
        -534 -73 callsubr
        rlineto
        -354 hlineto
        -531 -54 callsubr
        rlineto
        401 hlineto
        74 241 rlineto
        468 hlineto
        -375 302 rmoveto
        141 460 141 -460 rlineto
        endchar
      </CharString>
      <CharString index="5">
        rmoveto
        -73 -57 -23 -35 -41 hvcurveto
        145 32 123 3 114 hhcurveto
        11 192 -41 hlineto
        -213 -267 -90 -355 hvcurveto
        -49 vlineto
        -247 157 -81 184 181 140 117 159 164 -93 100 -157 vhcurveto
        -79 -353 rmoveto
        -74 -26 25 66 hvcurveto
        44 vlineto
        15 16 34 17 48 hhcurveto
        56 41 -13 -61 -49 -42 -44 -53 hvcurveto
        endchar
      </CharString>
      <CharString index="6">
        rmoveto
        425 vlineto
        -102 callsubr
        hvcurveto
        hintmask 10111100
        -82 callsubr
        vhcurveto
        hintmask 01111100
        -101 callsubr
      </CharString>
      <CharString index="7">
        rmoveto
        185 -46 rlineto
        9 10 30 25 65 hhcurveto
        hintmask 11101000
        71 30 -35 -61 -46 -10 -47 -75 -53 -34 10 42 2 hvcurveto
        -236 hlineto
        -145 -3 161 -95 163 hhcurveto
        218 100 144 138 162 -91 88 -179 -55 -59 -21 -5 -14 hvcurveto
        19 114 rlineto
        332 180 -520 hlineto
        endchar
      </CharString>
      <CharString index="8">
        rmoveto
        -340 282 rlineto
        -18 callsubr
        -334 -277 rlineto
        -19 275 vlineto
        161 127 -83 callgsubr
        hlineto
        return
      </CharString>
      <CharString index="9">
        358 -21 rmoveto
        21 vlineto
        143 34 118 133 137 32 -118 -143 vhcurveto
        -21 vlineto
        -149 -34 -111 -133 -137 -32 111 149 vhcurveto
        endchar
      </CharString>
      <CharString index="10">
        1342 -64 callsubr
        -423 hlineto
        -162 -369 -250 369 rlineto
        -422 hlineto
        269 -396 rlineto
        -155 -75 -62 -128 -229 vvcurveto
        -382 365 551 vlineto
        14 1 13 3 11 vhcurveto
        400 -589 rlineto
        421 hlineto
        -339 500 rlineto
        return
      </CharString>
      <CharString index="11">
        rmoveto
        331 -192 197 -306 -363 -166 -255 -304 vhcurveto
        -37 vlineto
        -278 206 -248 361 206 155 92 91 68 vhcurveto
        -159 209 rlineto
        hintmask 10111100
        -78 -64 -97 -24 -85 hhcurveto
        -113 -79 55 96 -29 hvcurveto
        657 hlineto
        -349 256 rmoveto
        -29 -312 vlineto
        91 14 40 73 106 hhcurveto
        94 61 -37 -98 -3 hvcurveto
        endchar
      </CharString>
      <CharString index="12">
        -167 -68 -67 -136 -136 -72 67 167 vhcurveto
        941 -375 -941 vlineto
        -345 234 -190 349 354 223 190 345 vhcurveto
        endchar
      </CharString>
      <CharString index="13">
        -112 -45 -43 -104 -103 -49 43 112 vhcurveto
        737 -360 -737 vlineto
        -283 201 -161 311 322 187 161 283 vhcurveto
        endchar
      </CharString>
      <CharString index="14">
        rmoveto
        -76 445 -234 -1 hlineto
        -344 -478 16 -156 rlineto
        328 -154 234 154 76 hlineto
        -436 190 rmoveto
        110 144 16 24 rlineto
        -168 vlineto
        endchar
      </CharString>
      <CharString index="15">
        -3 275 rlineto
        12 -50 -53 10 -60 hhcurveto
        -259 -164 -138 -256 hvcurveto
        -81 -49 callgsubr
        360 823 return
      </CharString>
      <CharString index="16">
        -115 -81 -79 -105 -106 81 -80 115 115 81 80 106 105 -81 79 -115 hvcurveto
        return
      </CharString>
      <CharString index="17">
        685 -25 rmoveto
        335 223 229 344 hvcurveto
        106 vlineto
        391 -213 200 -394 -197 -240 -31 -48 -164 vhcurveto
        70 -272 28 7 68 17 32 7 rlinecurve
        2 -6 -7 -6 -5 -5 -7 -9 rlinecurve
        -43 -66 -49 -138 2 -97 1 -50 rcurveline
        -344 6 225 -229 327 hhcurveto
        -1 310 rmoveto
        -108 -71 105 156 hvcurveto
        79 vlineto
        208 -2 62 105 122 hhcurveto
        119 58 -97 -194 hvcurveto
        -101 vlineto
        -156 -72 -105 -108 vhcurveto
        return
      </CharString>
      <CharString index="18">
        rmoveto
        -81 callgsubr
        hintmask 11010100
        -48 callsubr
        -96 callsubr
        hintmask 11101000
        101 58 -82 122 hhcurveto
        hintmask 11100010
        -76 callgsubr
        hintmask 11101000
        return
      </CharString>
      <CharString index="19">
        990 rmoveto
        -124 -96 -49 -65 -65 hvcurveto
        235 42 197 78 211 hhcurveto
        19 294 -60 hlineto
        -381 -395 -245 -529 hvcurveto
        -136 vlineto
        -400 243 -193 304 297 220 216 288 296 -150 210 -262 vhcurveto
        hintmask 10110000
        -115 -721 rmoveto
        -124 -55 75 166 hvcurveto
        105 vlineto
        49 27 55 39 82 hhcurveto
        103 80 -71 -145 -122 -72 -96 -96 hvcurveto
        endchar
      </CharString>
      <CharString index="20">
        rmoveto
        132 94 89 108 108 -94 93 -132 -131 -94 -93 -108 -108 94 -89 131 hvcurveto
        299 vmoveto
        64 38 -45 -57 -57 -38 -44 -64 -64 -37 43 58 57 37 45 64 hvcurveto
        return
      </CharString>
      <CharString index="21">
        rmoveto
        hintmask 11110000
        79 28 55 55 85 vvcurveto
        148 -135 79 -197 -157 -152 -72 -156 vhcurveto
        233 hlineto
        27 40 13 44 72 19 -38 -22 -47 -29 -28 -63 vhcurveto
        -92 -149 92 hlineto
        hintmask 11101000
        67 40 -20 -58 -35 -24 -39 -72 -68 -40 37 32 hvcurveto
        -235 hlineto
        -194 179 -63 146 197 151 85 148 110 -63 51 -87 23 vhcurveto
        endchar
      </CharString>
      <CharString index="22">
        147 hmoveto
        374 hlineto
        62 689 rlineto
        165 15 48 84 105 hhcurveto
        86 52 -83 -135 hvcurveto
        1 -428 rlineto
        -166 -292 545 668 hlineto
        379 -2 -203 198 -388 hhcurveto
        -198 -233 -40 -58 -154 hvcurveto
        79 -271 38 17 74 23 50 8 rlinecurve
        1 -6 -4 -1 -4 -5 -4 -4 rlinecurve
        -51 -57 -41 -107 -12 -107 rrcurveto
        return
      </CharString>
      <CharString index="23">
        188 436 188 hstemhm
        66 234 -216 234 134 234 -215 233 26 callsubr
        579 return
      </CharString>
      <CharString index="24">
        162 -127 rlineto
        281 return
      </CharString>
      <CharString index="25">
        -26 -65 rlineto
        -39 -16 -32 -31 -105 -17 -9 -1 -18 hhcurveto
        -266 vlineto
        -18 67 7 -3 71 hhcurveto
        255 70 168 109 38 hvcurveto
        435 1242 rlineto
        endchar
      </CharString>
      <CharString index="26">
        -195 10 rlineto
        -61 -35 -23 -41 vhcurveto
        return
      </CharString>
      <CharString index="27">
        -47 -52 callsubr
        468 193 183 258 return
      </CharString>
      <CharString index="28">
        21 -21 -30 callsubr
        return
      </CharString>
      <CharString index="29">
        160 -35 48 -21 -48 vvcurveto
        -52 -43 -35 -83 -98 -60 42 85 -3 vhcurveto
        -333 hlineto
        -171 169 -198 315 295 185 146 191 245 -212 73 -210 33 vhcurveto
        -115 18 -56 36 52 vvcurveto
        57 56 30 57 94 31 -33 -82 -29 callgsubr
        return
      </CharString>
      <CharString index="30">
        -85 3 -47 -44 -89 hhcurveto
        -128 -15 109 153 hvcurveto
        17 vlineto
        149 15 114 126 96 42 -68 -88 -3 vhcurveto
        336 hlineto
        return
      </CharString>
      <CharString index="31">
        138 95 136 145 hvcurveto
        return
      </CharString>
      <CharString index="32">
        1541 rmoveto
        -41 callsubr
        hintmask 01010000
        -96 callsubr
        hintmask 10001000
        101 58 -82 122 hhcurveto
        hintmask 00100100
        -76 callgsubr
        endchar
      </CharString>
      <CharString index="33">
        186 79 170 194 188 hstem
        64 234 171 233 vstem
        384 return
      </CharString>
      <CharString index="34">
        rmoveto
        -745 vlineto
        -43 -27 -46 -26 -75 hhcurveto
        -87 -40 45 67 hvcurveto
        702 -359 -700 vlineto
        hintmask 10100000
        -286 149 -116 214 vhcurveto
        hintmask 10010000
        121 97 52 87 67 hvcurveto
        hintmask 01010000
        11 -119 rlineto
        335 1082 hlineto
        endchar
      </CharString>
      <CharString index="35">
        rmoveto
        130 -652 -188 407 vlineto
        -321 -601 rlineto
        246 hlineto
        endchar
      </CharString>
      <CharString index="36">
        918 292 return
      </CharString>
      <CharString index="37">
        174 -254 -172 vlineto
        -136 -44 -86 -38 -72 vhcurveto
        153 -81 rlineto
        89 81 94 154 138 vvcurveto
        return
      </CharString>
      <CharString index="38">
        hstemhm
        82 994 -340.5 340.5 return
      </CharString>
      <CharString index="39">
        -36 callsubr
        30 callsubr
        return
      </CharString>
      <CharString index="40">
        379 -63 callgsubr
        -468 -292 89 hlineto
        return
      </CharString>
      <CharString index="41">
        rmoveto
        -215 hlineto
        -269 -390 rlineto
        -19 vlineto
        269 -390 rlineto
        215 hlineto
        -228 400 rlineto
        return
      </CharString>
      <CharString index="42">
        -16 289 -268 -21 return
      </CharString>
      <CharString index="43">
        101 58 -82 122 hhcurveto
        -76 callgsubr
        -81 callgsubr
        return
      </CharString>
      <CharString index="44">
        1210 return
      </CharString>
      <CharString index="45">
        13 0 301 300 290 263 302 return
      </CharString>
      <CharString index="46">
        199 215 -21 callgsubr
        return
      </CharString>
      <CharString index="47">
        -63 callgsubr
        -64 callsubr
        -423 hlineto
        -144 -346 -209 346 rlineto
        -421 hlineto
        615 -917 rlineto
        -501 -293 986 165 hlineto
        -247 357 rlineto
        return
      </CharString>
      <CharString index="48">
        1363 rmoveto
        66 48 41 58 58 -48 43 -66 -64 -49 -43 -58 -58 49 -41 64 hvcurveto
        return
      </CharString>
      <CharString index="49">
        -128 -106 -50 -95 -73 hvcurveto
        -12 125 rlineto
        -336 -1082 359 754 hlineto
        38 26 41 22 63 hhcurveto
        90 54 -20 -121 hvcurveto
        -673 360 672 vlineto
        return
      </CharString>
      <CharString index="50">
        312 76 98 160 181 66 -73 -154 1 vhcurveto
        372 hlineto
        307 -26 -207 227 -387 hhcurveto
        -370 -246 -273 -446 hvcurveto
        -61 vlineto
        return
      </CharString>
      <CharString index="51">
        187 167 186 90 192 hstem
        61 233 195 234 vstem
        473 return
      </CharString>
      <CharString index="52">
        rmoveto
        59 -46 41 -67 -64 -50 -41 -59 -58 -44 callsubr
        67 46 42 57 vhcurveto
        endchar
      </CharString>
      <CharString index="53">
        284 -20 304 887 305 return
      </CharString>
      <CharString index="54">
        440 hlineto
        326 252 243 322 hvcurveto
        34 vlineto
        322 -250 244 -343 vhcurveto
        231 -600 rmoveto
        -201 -47 -75 -169 vhcurveto
        -80 return
      </CharString>
      <CharString index="55">
        -47 callgsubr
        -359 -1165 vlineto
        endchar
      </CharString>
      <CharString index="56">
        1082 -360 -1082 vlineto
        endchar
      </CharString>
      <CharString index="57">
        rmoveto
        2 234 rlineto
        -282 -257 hlineto
        -172 -70 -83 -38 -91 vhcurveto
        179 -81 rlineto
        115 102 94 174 174 vvcurveto
        endchar
      </CharString>
      <CharString index="58">
        -155 -259 155 -823 return
      </CharString>
      <CharString index="59">
        88 21 -21 183 251 return
      </CharString>
      <CharString index="60">
        1165 return
      </CharString>
      <CharString index="61">
        1079 -64 callsubr
        -644 326 -379 -618 619 hlineto
        -375 -918 rlineto
        399 hlineto
        380 967 rlineto
        return
      </CharString>
      <CharString index="62">
        rmoveto
        -384 hlineto
        -193 -437 -193 437 rlineto
        -384 hlineto
        393 -745 rlineto
        -420 361 408 vlineto
        endchar
      </CharString>
      <CharString index="63">
        -72 callsubr
        -58 return
      </CharString>
      <CharString index="64">
        814 32 callsubr
        773 hlineto
        272 -184 165 -306 vhcurveto
        -558 -292 529 hlineto
        90 50 -46 -80 hvcurveto
        return
      </CharString>
      <CharString index="65">
        -54 callsubr
        373 return
      </CharString>
      <CharString index="66">
        -215 hlineto
        228 -399 -228 -400 rlineto
        215 hlineto
        return
      </CharString>
      <CharString index="67">
        187 426 188 hstemhm
        50 649 -250 233 return
      </CharString>
      <CharString index="68">
        290 0 -20 hstemhm
        return
      </CharString>
      <CharString index="69">
        319 hstem
        return
      </CharString>
      <CharString index="70">
        486 291 hstem
        170 619 vstem
        789 486 rmoveto
        291 -619 -291 vlineto
        endchar
      </CharString>
      <CharString index="71">
        rmoveto
        364 869 hlineto
        97 7 73 10 48 vhcurveto
        -300 hlineto
        -23 -15 -58 -70 -177 vvcurveto
        endchar
      </CharString>
      <CharString index="72">
        -47 callgsubr
        rmoveto
        return
      </CharString>
      <CharString index="73">
        -61 callsubr
        -80 -20 hstemhm
        return
      </CharString>
      <CharString index="74">
        -1165 360 return
      </CharString>
      <CharString index="75">
        717 -41 293 252 199 507 -20 return
      </CharString>
      <CharString index="76">
        -329 10 callgsubr
        -315 return
      </CharString>
      <CharString index="77">
        227 hintmask 11110000
        return
      </CharString>
      <CharString index="78">
        vhcurveto
        359 hlineto
        return
      </CharString>
      <CharString index="79">
        17 -86 callsubr
        832 290 115 319 -3 callgsubr
        hintmask 01111000
        return
      </CharString>
      <CharString index="80">
        60 -64 callsubr
        -292 481 -918 379 918 217 292 vlineto
        return
      </CharString>
      <CharString index="81">
        140 -31 49 -35 -59 vvcurveto
        -21 -10 -62 -101 -149 -41 42 105 vhcurveto
        -360 hlineto
        return
      </CharString>
      <CharString index="82">
        -86 callsubr
        832 290 hstemhm
        return
      </CharString>
      <CharString index="83">
        2 -788 rlineto
        378 754 hlineto
        299 return
      </CharString>
      <CharString index="84">
        -1130 1363 200 hstem
        return
      </CharString>
      <CharString index="85">
        -63 callgsubr
        -20 hstem
        return
      </CharString>
      <CharString index="86">
        292 hstemhm
        return
      </CharString>
      <CharString index="87">
        54 -65 callgsubr
        1263 319 hstemhm
        80 1021 hintmask 01110000
        return
      </CharString>
      <CharString index="88">
        569 -416 rmoveto
        372 1626 -869 -292 497 hlineto
        return
      </CharString>
      <CharString index="89">
        -21 823 259 return
      </CharString>
      <CharString index="90">
        -289 -163 -163 -186 -193 172 -102 207 -45 return
      </CharString>
      <CharString index="91">
        273 rmoveto
        -86 -23 25 80 hvcurveto
        445 175 259 -175 return
      </CharString>
      <CharString index="92">
        -21 callsubr
        73 return
      </CharString>
      <CharString index="93">
        25 callsubr
        -187 168 -316 vhcurveto
        return
      </CharString>
      <CharString index="94">
        196 -196 783 -195 195 hintmask 00000000
        hintmask 00100100
        return
      </CharString>
      <CharString index="95">
        21 callsubr
        -175 152 hstemhm
        return
      </CharString>
      <CharString index="96">
        rmoveto
        -1 callgsubr
      </CharString>
      <CharString index="97">
        21 -21 1247 -38 callgsubr
        return
      </CharString>
      <CharString index="98">
        -502 -79 callgsubr
        return
      </CharString>
      <CharString index="99">
        0 301 853 0 callgsubr
        return
      </CharString>
      <CharString index="100">
        6 callsubr
        -38 callgsubr
        return
      </CharString>
      <CharString index="101">
        115 -77 45 -73 13 return
      </CharString>
      <CharString index="102">
        hstemhm
        101 1160 return
      </CharString>
      <CharString index="103">
        -30 callsubr
        hstem
        return
      </CharString>
      <CharString index="104">
        hstemhm
        47 1052 return
      </CharString>
      <CharString index="105">
        62 -20 289 -268 -21 1209 294 hstemhm
        return
      </CharString>
      <CharString index="106">
        -67 callgsubr
        endchar
      </CharString>
      <CharString index="107">
        302 hstem
        return
      </CharString>
      <CharString index="108">
        66 47 42 58 58 -47 42 -66 -65 -48 -42 -58 return
      </CharString>
      <CharString index="109">
        151 hvcurveto
        21 vlineto
        150 39 117 114 return
      </CharString>
      <CharString index="110">
        17 -20 288 -267 -21 return
      </CharString>
      <CharString index="111">
        -4 callsubr
        endchar
      </CharString>
      <CharString index="112">
        62 1289 return
      </CharString>
      <CharString index="113">
        1536 return
      </CharString>
      <CharString index="114">
        319 rlineto
        return
      </CharString>
      <CharString index="115">
        65 hlineto
        187 44 -88 -186 hvcurveto
        endchar
      </CharString>
      <CharString index="116">
        315 hvcurveto
        21 vlineto
        return
      </CharString>
      <CharString index="117">
        hvcurveto
        -21 vlineto
        return
      </CharString>
      <CharString index="118">
        785 24 callsubr
        return
      </CharString>
      <CharString index="119">
        217 rlineto
        -268 -215 hlineto
        -146 return
      </CharString>
      <CharString index="120">
        -237 276 102 76 41 67 59 vhcurveto
        return
      </CharString>
      <CharString index="121">
        hstem
        5 callgsubr
        vstem
        return
      </CharString>
      <CharString index="122">
        292 162 185 return
      </CharString>
      <CharString index="123">
        -328 152 return
      </CharString>
      <CharString index="124">
        200 hstemhm
        return
      </CharString>
      <CharString index="125">
        -323 220 -216 329 vhcurveto
        return
      </CharString>
      <CharString index="126">
        307 0 -20 hstemhm
        62 1236 return
      </CharString>
      <CharString index="127">
        -180 -64 91 318 hvcurveto
        63 vlineto
        return
      </CharString>
      <CharString index="128">
        -224 113 -76 319 -74 vhcurveto
        return
      </CharString>
      <CharString index="129">
        292 hstem
        return
      </CharString>
      <CharString index="130">
        -469 -360 1957 hstem
        return
      </CharString>
      <CharString index="131">
        rmoveto
        287 -941 -287 vlineto
        return
      </CharString>
      <CharString index="132">
        hlineto
        379 -917 rmoveto
        625 return
      </CharString>
      <CharString index="133">
        -154 -1 -90 -60 -147 hhcurveto
        return
      </CharString>
      <CharString index="134">
        208 284 -21 return
      </CharString>
      <CharString index="135">
        hstem
        102 1018 vstem
        return
      </CharString>
      <CharString index="136">
        558 rmoveto
        295 return
      </CharString>
      <CharString index="137">
        0 callgsubr
        102 return
      </CharString>
      <CharString index="138">
        -535 21 -21 return
      </CharString>
</ttFont>
